<svg xmlns="http://www.w3.org/2000/svg" width="417.597" height="755.225" viewBox="0 0 417.597 755.225">
  <g id="Group_162" data-name="Group 162" transform="translate(2 -111.775)">
    <rect id="Rectangle_57" data-name="Rectangle 57" width="416" height="754" transform="translate(-2 113)" fill="#41436a"/>
    <g id="Group_111" data-name="Group 111" transform="translate(-43.95 83.31)" opacity="0.14">
      <path id="Path_110" data-name="Path 110" d="M43.95,249.212c105.152,0,198.583-98.283,198.583-219.522H46Z" transform="translate(0 0)" fill="#d6e1ff" stroke="#d6e1ff" stroke-miterlimit="10" stroke-width="2.449"/>
      <path id="Path_111" data-name="Path 111" d="M122.114,515.911a114.4,114.4,0,0,1,228.8,0" transform="translate(-18.93 267.779)" fill="#d6e1ff" stroke="#d6e1ff" stroke-miterlimit="10" stroke-width="2.449"/>
      <circle id="Ellipse_5" data-name="Ellipse 5" cx="28.403" cy="28.403" r="28.403" transform="translate(383.863 175.822) rotate(-22.254)" fill="#d6e1ff" stroke="#d6e1ff" stroke-miterlimit="10" stroke-width="2.449"/>
      <circle id="Ellipse_6" data-name="Ellipse 6" cx="8.25" cy="8.25" r="8.25" transform="translate(320.974 583.405)" fill="#d6e1ff" stroke="#d6e1ff" stroke-miterlimit="10" stroke-width="2.449"/>
      <circle id="Ellipse_7" data-name="Ellipse 7" cx="9.159" cy="9.159" r="9.159" transform="translate(328.851 222.868)" fill="#d6e1ff" stroke="#d6e1ff" stroke-miterlimit="10" stroke-width="2.449"/>
    </g>
    <g id="Group_112" data-name="Group 112" transform="translate(-342.665 286.34)">
      <path id="Path_1" data-name="Path 1" d="M744.616,136.118H594.8a152.138,152.138,0,1,0,0,304.276l150,1.7Z" transform="translate(11.873 0)" fill="#d6e1ff" stroke="#d6e1ff" stroke-miterlimit="10" stroke-width="2.449"/>
      <g id="Group_51" data-name="Group 51" transform="translate(361.559 147.034)">
        <g id="Group_17" data-name="Group 17" transform="translate(168.964 8.365)">
          <g id="Group_16" data-name="Group 16">
            <ellipse id="Ellipse_2" data-name="Ellipse 2" cx="58.678" cy="3.376" rx="58.678" ry="3.376" transform="translate(31.987 278.015)" fill="#7797c9"/>
            <g id="Group_4" data-name="Group 4" transform="translate(20.964 267.877)">
              <path id="Path_2" data-name="Path 2" d="M543.205,390.647l1.8-3.553,10.709.387.24,3.166-5.031,8.729-9.057-6.983Z" transform="translate(-525.091 -386.535)" fill="#f0979d"/>
              <path id="Path_3" data-name="Path 3" d="M548.732,387.522l.449,8.247a38.8,38.8,0,0,0,6.033-4.494l-.446-4.669Z" transform="translate(-524.086 -386.606)" fill="#e66971"/>
              <path id="Path_4" data-name="Path 4" d="M544.7,390.086a11.979,11.979,0,0,1,6.8,2.716c2.179,1.653,5.472-1.756,6.481-2.637.205-.18.484-.018.518.3l1.267,11.528H527.9a.791.791,0,0,1-.671-.872v-2.426a.886.886,0,0,1,.459-.829Z" transform="translate(-527.233 -386.097)" fill="#264373"/>
              <line id="Line_1" data-name="Line 1" x2="5.13" y2="2.968" transform="translate(15.677 4.594)" fill="none" stroke="#fff" stroke-miterlimit="10" stroke-width="0.395"/>
              <line id="Line_2" data-name="Line 2" x2="5.13" y2="2.968" transform="translate(13.441 5.739)" fill="none" stroke="#fff" stroke-miterlimit="10" stroke-width="0.395"/>
            </g>
            <g id="Group_5" data-name="Group 5" transform="translate(72.884 266.962)">
              <path id="Path_5" data-name="Path 5" d="M588.495,390.835l1.8-3.553,9.828-1.474,1.121,5.027-5.032,8.729-9.057-6.983Z" transform="translate(-570.381 -385.808)" fill="#f0979d"/>
              <path id="Path_6" data-name="Path 6" d="M595.068,387.293l-.892,7.79a38.856,38.856,0,0,0,6.034-4.494l-.894-3.983Z" transform="translate(-569.353 -385.691)" fill="#e66971"/>
              <path id="Path_7" data-name="Path 7" d="M589.989,390.086A11.981,11.981,0,0,1,596.8,392.8c2.179,1.653,5.472-1.756,6.481-2.637.205-.18.484-.018.518.3l1.266,11.528H573.194a.791.791,0,0,1-.671-.872v-2.426a.886.886,0,0,1,.459-.829Z" transform="translate(-572.523 -385.181)" fill="#264373"/>
              <line id="Line_3" data-name="Line 3" x2="5.13" y2="2.968" transform="translate(14.956 5.738)" fill="none" stroke="#fff" stroke-miterlimit="10" stroke-width="0.395"/>
              <line id="Line_4" data-name="Line 4" x2="5.13" y2="2.968" transform="translate(12.72 6.882)" fill="none" stroke="#fff" stroke-miterlimit="10" stroke-width="0.395"/>
            </g>
            <path id="Path_8" data-name="Path 8" d="M556.756,167.426a4.37,4.37,0,0,0,1.694,1.522c1.486.592,3.385-.647,5.047-1.935,1.635-1.268,4.752.8,5.238,1.134l3.754,12.143-.292.158.11.214h0l.111.216,3.768-2.03.029-.1c2.77-9.109,2.594-11.154,1.275-15.126-3.492-5.652-14.537-8.682-15.371-9.373a5.612,5.612,0,0,0-6.435-.549c-3.87,2.349-3.142,7.619-.929,11.145A5.012,5.012,0,0,0,556.756,167.426Zm3.97-12.376a4.96,4.96,0,0,0-6.388,3.726,4.312,4.312,0,0,1,2.065-3.813A4.121,4.121,0,0,1,560.726,155.05Zm13.4,24.361-.819.44a4.012,4.012,0,0,1,1.649-1.013Z" transform="translate(-502.506 -152.937)" fill="#264373"/>
            <g id="Group_6" data-name="Group 6" transform="translate(36.546 132.455)">
              <path id="Path_9" data-name="Path 9" d="M545.346,268.478s-4.1,49.022-4.483,62.567,2.334,73.928,2.334,73.928l13.717.3s15.241-101.3,31.8-133.966Z" transform="translate(-540.826 -268.478)" fill="#d14c62"/>
              <path id="Path_10" data-name="Path 10" d="M564.514,270.735s-11.661,56.633-11.661,65.328-1.721,68.449-1.721,68.449" transform="translate(-539.317 -268.148)" fill="none" stroke="#fff" stroke-miterlimit="10" stroke-width="0.395"/>
              <line id="Line_5" data-name="Line 5" x1="14.795" transform="translate(2.224 130.201)" fill="none" stroke="#fff" stroke-miterlimit="10" stroke-width="0.395"/>
            </g>
            <g id="Group_8" data-name="Group 8" transform="translate(43.944 132.522)">
              <path id="Path_11" data-name="Path 11" d="M547.278,268.536s6.565,40.8,16.189,69.708c7.778,23.362,28.2,67.8,28.2,67.8l15.926-.173-16.6-66.931a58.14,58.14,0,0,1-1.667-10.648c-.854-13.576,1.936-41.008,3.1-58.585Z" transform="translate(-547.278 -268.536)" fill="#ff5c77"/>
              <g id="Group_7" data-name="Group 7" transform="translate(14.232 0.238)">
                <path id="Path_12" data-name="Path 12" d="M573.973,269.142s-4.478,52.967-.453,61.2,23.649,75.311,23.649,75.311" transform="translate(-557.914 -268.685)" fill="none" stroke="#000d2b" stroke-miterlimit="10" stroke-width="0.395"/>
                <line id="Line_6" data-name="Line 6" x1="16.491" transform="translate(27.672 131.038)" fill="none" stroke="#000d2b" stroke-miterlimit="10" stroke-width="0.395"/>
                <line id="Line_7" data-name="Line 7" x2="14.275" y2="18.72" fill="none" stroke="#000d2b" stroke-miterlimit="10" stroke-width="0.395"/>
              </g>
            </g>
            <g id="Group_9" data-name="Group 9" transform="translate(0 10.136)">
              <path id="Path_13" data-name="Path 13" d="M572.366,206.971s.542-4.4-3.525-5.038-15.029-3.546-42.9,5.972c0,0-4.827-26.986-4.875-29.169-.123-5.682-1.924-13.056-6.32-16.952-.361-.319-.622,14.089-.781,21.778,0,0-3.71,38.71.815,42.6S576.865,220.234,572.366,206.971Z" transform="translate(-508.421 -161.778)" fill="#f0979d"/>
              <path id="Path_14" data-name="Path 14" d="M537.679,201.418s42.207-10.559,41.749,1.707-61.906,35.252-67.047,28.4c-8.16-10.875.776-48.112.776-48.112l10.088-4.5,2.948,25.3Z" transform="translate(-508.946 -159.27)" fill="#264373"/>
              <path id="Path_15" data-name="Path 15" d="M536.563,222.358c2.445,2.934,26.379-3.226,29-7.222,0,0,.408-13.4-.611-13.672C554.565,198.647,536.563,222.358,536.563,222.358Z" transform="translate(-504.903 -156.003)" fill="#203961"/>
            </g>
            <g id="Group_10" data-name="Group 10" transform="translate(37.425 44.989)">
              <path id="Path_16" data-name="Path 16" d="M582.247,194.438s21.408,2.186,22.756,19.913-9.712,73.123-9.712,73.123l-53.7.931,3-69.863a25.8,25.8,0,0,1,4.034-12.68c2.238-3.5,4.858-7.457,6.348-7.643l22.474-6.038Z" transform="translate(-541.592 -192.181)" fill="#264373"/>
              <path id="Path_17" data-name="Path 17" d="M586.629,200.159c13.006-5.217,17.66,4.378,18.334,13.241,1.347,17.728-10.022,72.812-10.022,72.812l-53.079,1.552" transform="translate(-541.552 -191.229)" fill="#203961"/>
            </g>
            <g id="Group_11" data-name="Group 11" transform="translate(58.345 29.219)">
              <path id="Path_18" data-name="Path 18" d="M572.837,180.417l2.245,13.777-13.412,8.63-1.829-5.378.963-9.959,10.012-9.063a9.759,9.759,0,0,1,1.733,1.495A2.245,2.245,0,0,0,572.837,180.417Z" transform="translate(-559.84 -178.425)" fill="#f0979d"/>
              <path id="Path_19" data-name="Path 19" d="M570.782,178.425l-10.012,9.063-.707,5.925s9.089-2.5,9.405-10.015" transform="translate(-559.807 -178.425)" fill="#000d2b"/>
            </g>
            <g id="Group_13" data-name="Group 13" transform="translate(0.021 51.428)">
              <g id="Group_12" data-name="Group 12" transform="translate(0 4.341)">
                <path id="Path_20" data-name="Path 20" d="M552.494,254.252l-11.933-37.445a7.44,7.44,0,0,0-4.111-4.594L512.016,201.66a.924.924,0,0,0-1.212,1.172l12.057,36.686a7.449,7.449,0,0,0,3.9,4.441l24.5,11.447A.923.923,0,0,0,552.494,254.252Z" transform="translate(-508.702 -201.584)" fill="#264373"/>
                <path id="Path_21" data-name="Path 21" d="M550.705,256.165l-11.934-37.446a7.444,7.444,0,0,0-4.11-4.594l-24.434-10.553a.924.924,0,0,0-1.213,1.172l12.058,36.686a7.445,7.445,0,0,0,3.9,4.44l24.5,11.448A.924.924,0,0,0,550.705,256.165Z" transform="translate(-508.964 -201.304)" fill="#7fb7f4"/>
                <path id="Path_22" data-name="Path 22" d="M541.192,225.53l-9,2.665,11.364,4.6Z" transform="translate(-505.563 -198.079)" fill="#000d2b" stroke="#19224a" stroke-miterlimit="10" stroke-width="0"/>
              </g>
              <path id="Path_23" data-name="Path 23" d="M532.5,232.962c1.321,1.185,28.873,31.535,43,35.261,4.118,1.086,7.16-2.489,9.312-6.209l14.2-27.543L580.09,219.789c-.135.209-10.023,17.017-12.3,25.449-.749,2.773-2.046,2.561-4.3,1.183l-17.268-10.644a19.514,19.514,0,0,0-.355-4.16c-.729-2.17-4.191-5.084-4.191-5.084l1.5,4.6c.269.776,1.154,1.337-.241,1.5l-10.966-8.127s-1-.081-.052,1a11.537,11.537,0,0,1,1.841,2.288c-.132.081-3.131-2.019-3.262-1.212s2.445,2.747,2.341,2.827-2.92-2.234-3.078-1.481,1.973,2.208,2.079,2.5-2.316-1.561-2.42-1.158S531.75,232.284,532.5,232.962Z" transform="translate(-505.97 -194.578)" fill="#f0979d"/>
              <path id="Path_24" data-name="Path 24" d="M583.377,208.128s5.39-15.138,15.788-8.764,1.08,36.293-3.08,43.821c-3.428,6.2-7.529,18.465-13.15,26.549-3.925,5.647-15.134,4.932-20.108.182l-21.642-20.668,5.122-9.778,18,7.76Z" transform="translate(-504.247 -197.798)" fill="#264373"/>
            </g>
            <g id="Group_15" data-name="Group 15" transform="translate(53.071 12.499)">
              <path id="Path_25" data-name="Path 25" d="M572.461,177.2a.458.458,0,0,0,.753.177c.815-.8,2.438-1.9,3.02,1.29.791,4.327-3.725,3.583-4.085,4.165-.729,1.182-3.07,5.151-6.56,6.691a6.9,6.9,0,0,1-7.6-1.143c-2.323-2.23-3.362-.7-2.388-24.542a5.926,5.926,0,0,0,2.594,2.582c1.529.53,3.982-1.592,5.723-2.078,1.415-.394,4.158-1.432,5.834,3.49C570.526,170.095,571.752,175.327,572.461,177.2Z" transform="translate(-555.24 -163.84)" fill="#f0979d"/>
              <g id="Group_14" data-name="Group 14" transform="translate(0.084 6.052)">
                <path id="Path_26" data-name="Path 26" d="M555.627,178.8s1.4.7,4.824.375c0,0-1.842,2.5-3.19,2.013S555.627,178.8,555.627,178.8Z" transform="translate(-555.267 -167.702)" fill="#fff"/>
                <path id="Path_27" data-name="Path 27" d="M573.268,176.6l-2.386,1.8S571.772,174.046,573.268,176.6Z" transform="translate(-553.034 -168.142)" fill="#e66971"/>
                <path id="Path_28" data-name="Path 28" d="M558.066,174.513c0,.522.206.943.461.943s.461-.422.461-.943-.206-.942-.461-.942S558.066,173.993,558.066,174.513Z" transform="translate(-554.91 -168.468)" fill="#000d2b"/>
                <path id="Path_29" data-name="Path 29" d="M555.451,174.111c0,.52.206.942.461.942s.461-.422.461-.942-.206-.943-.461-.943S555.451,173.591,555.451,174.111Z" transform="translate(-555.293 -168.527)" fill="#000d2b"/>
                <path id="Path_30" data-name="Path 30" d="M561.875,171.1c.682.476-.386-1.681-1.314-1.92a1.62,1.62,0,0,0-2.046,1.05A4.993,4.993,0,0,1,561.875,171.1Z" transform="translate(-554.844 -169.119)" fill="#000d2b"/>
                <path id="Path_31" data-name="Path 31" d="M555.329,170.815a5.018,5.018,0,0,1,1.682.046,1.7,1.7,0,0,0-1.7-1.342" transform="translate(-555.313 -169.061)" fill="#000d2b"/>
                <path id="Path_32" data-name="Path 32" d="M556.862,173.975l-1.4,3.994a.1.1,0,0,0,.081.141l1.658.126a.1.1,0,0,0,.1-.111l-.252-4.119A.094.094,0,0,0,556.862,173.975Z" transform="translate(-555.293 -168.418)" fill="#e66971"/>
              </g>
            </g>
          </g>
          <path id="Path_33" data-name="Path 33" d="M574.123,188.526,561.086,198.3l.31,10.709,16.917-15.21Z" transform="translate(-501.313 -147.727)" fill="#fff"/>
          <path id="Path_34" data-name="Path 34" d="M560.268,190.692l1.4,7.76-2.483,8.381-3.1-9.778Z" transform="translate(-502.046 -147.41)" fill="#fff"/>
        </g>
        <g id="Group_37" data-name="Group 37" transform="translate(0 21.675)">
          <ellipse id="Ellipse_3" data-name="Ellipse 3" cx="58.678" cy="3.376" rx="58.678" ry="3.376" transform="translate(17.199 266.527)" fill="#839ec9"/>
          <g id="Group_24" data-name="Group 24" transform="translate(30.862 10.998)">
            <g id="Group_18" data-name="Group 18">
              <path id="Path_35" data-name="Path 35" d="M468.92,217.2,486.9,190.5c.921-1.321.355-6.21-.416-7.644a16.037,16.037,0,0,0-9.842-8.057c-18.066-4.537-88.166,16.021-88.166,16.021s12.2,54.9,68.159,51.851" transform="translate(-388.48 -174.14)" fill="#02192b" stroke="#02192b" stroke-miterlimit="10" stroke-width="0.401"/>
            </g>
            <g id="Group_23" data-name="Group 23" transform="translate(76.92 6.799)">
              <path id="Path_36" data-name="Path 36" d="M460.4,187.845a.342.342,0,0,1-.492.152,2.7,2.7,0,0,0-3.93.586c-1.356,1.945,1.138,4,2.212,4.759a1.528,1.528,0,0,1,.605.952c.249,1.2.734,5.668.96,9.59.2,3.417-2.441,10.851-2.441,10.851s12.261,4.819,13.629.631c0,0-2.959-11.3-1.941-14.027.023-.06,5.241,1.209,7.894-7.813,2.5-8.5-3.518-11.451-4.926-12C470.787,181.055,465.148,178.276,460.4,187.845Z" transform="translate(-455.576 -179.967)" fill="#f0a7a5"/>
              <g id="Group_19" data-name="Group 19" transform="translate(4.328)">
                <path id="Path_37" data-name="Path 37" d="M475.673,182.4s-9.192,10.883-16.32,5.442C459.353,187.838,464.3,174.93,475.673,182.4Z" transform="translate(-459.353 -180.072)" fill="#02192b" stroke="#02192b" stroke-miterlimit="10" stroke-width="0.401"/>
                <path id="Path_38" data-name="Path 38" d="M473.865,182.836a57.661,57.661,0,0,1-6.948,5.837,12.067,12.067,0,0,1-3.62,1.948c-.962.273-2.249.178-2.633-.746a2.3,2.3,0,0,1-.117-.949,19.75,19.75,0,0,1,.41-3.522" transform="translate(-459.179 -179.667)" fill="none" stroke="#02192b" stroke-miterlimit="10" stroke-width="0.401"/>
              </g>
              <g id="Group_22" data-name="Group 22" transform="translate(0 7.096)">
                <g id="Group_20" data-name="Group 20" transform="translate(1.243)">
                  <path id="Path_39" data-name="Path 39" d="M467.044,190.114a2.264,2.264,0,1,1-3.1.809A2.264,2.264,0,0,1,467.044,190.114Z" transform="translate(-455.641 -185.743)" fill="#f08884"/>
                  <path id="Path_40" data-name="Path 40" d="M473.3,194.085l-4.843-1.127s.668,2.609,2.128,2.691S473.3,194.085,473.3,194.085Z" transform="translate(-454.935 -185.282)" fill="#fff"/>
                  <path id="Path_41" data-name="Path 41" d="M471.715,190.846l-.828,2.383,1.3.179a.319.319,0,0,0,.341-.43Z" transform="translate(-454.58 -185.591)" fill="#cd5671"/>
                  <path id="Path_42" data-name="Path 42" d="M469.061,187.316c-.509.213.471-1.023,1.11-1.052a1.089,1.089,0,0,1,1.2.946A3.393,3.393,0,0,0,469.061,187.316Z" transform="translate(-454.868 -186.262)" fill="#02192b"/>
                  <path id="Path_43" data-name="Path 43" d="M474.895,187.593a1.134,1.134,0,0,0-1.51.416,3.366,3.366,0,0,1,1.548.531" transform="translate(-454.214 -186.085)" fill="#02192b"/>
                  <path id="Path_44" data-name="Path 44" d="M469.846,190.233c-.074.438.037.823.25.86s.445-.29.52-.729-.038-.823-.25-.86S469.921,189.794,469.846,190.233Z" transform="translate(-454.735 -185.788)" fill="#02192b"/>
                  <path id="Path_45" data-name="Path 45" d="M472.481,190.683c-.071.42.036.786.238.822s.426-.277.5-.7-.036-.786-.238-.822S472.553,190.265,472.481,190.683Z" transform="translate(-454.349 -185.717)" fill="#02192b"/>
                  <path id="Path_46" data-name="Path 46" d="M456.662,188.823s1.272-2.906,2.887.988" transform="translate(-456.662 -186.039)" fill="#cf4c48"/>
                </g>
                <g id="Group_21" data-name="Group 21" transform="translate(0 5.048)">
                  <path id="Path_47" data-name="Path 47" d="M458.357,191.2s-5.6,4.291-.41,9.051a.586.586,0,0,0,.817-.025C459.878,199.077,462.625,195.469,458.357,191.2Z" transform="translate(-455.553 -190.587)" fill="#fff"/>
                  <path id="Path_48" data-name="Path 48" d="M455.577,190.835l2.79,4,2.62-4.171Z" transform="translate(-455.577 -190.665)" fill="#ff578c"/>
                </g>
              </g>
              <path id="Path_49" data-name="Path 49" d="M468.132,198.9a13.562,13.562,0,0,1-2.6-.433,9.1,9.1,0,0,1-1.935-.762.438.438,0,0,0-.559.644s4.11,6.5,4.876,5.1C468.5,202.377,467.348,199.834,468.132,198.9Z" transform="translate(-454.498 -177.498)" fill="#02192b"/>
            </g>
          </g>
          <g id="Group_26" data-name="Group 26" transform="translate(102.921 247.406)">
            <path id="Path_50" data-name="Path 50" d="M459.87,380.533l-4.026,14.7s2.417,8.822,4.66,5.406a24.764,24.764,0,0,1,4.465-5.22l4.729-15.063Z" transform="translate(-450.677 -380.359)" fill="#ffb5ad"/>
            <g id="Group_25" data-name="Group 25" transform="translate(0 12.629)">
              <path id="Path_51" data-name="Path 51" d="M466.692,393.745l13.635,7.781c.611.349.282,1.075-.487,1.071-6.3-.034-23.259-.209-27.719-.266-.541-.007-.914-.4-.743-.782.944-2.114,4.153-10.117,4.518-10.173,0,0,3.185,5.153,5.042,4.634a16.275,16.275,0,0,0,4.47-2.231A1.046,1.046,0,0,1,466.692,393.745Z" transform="translate(-451.336 -391.375)" fill="#2d4a73"/>
              <line id="Line_8" data-name="Line 8" x1="2.316" y2="2.118" transform="translate(15.797 3.26)" fill="#b3009c" stroke="#fff" stroke-linecap="round" stroke-miterlimit="10" stroke-width="0.582"/>
              <line id="Line_9" data-name="Line 9" x1="2.316" y2="2.118" transform="translate(17.327 4.485)" fill="#b3009c" stroke="#fff" stroke-linecap="round" stroke-miterlimit="10" stroke-width="0.582"/>
            </g>
          </g>
          <g id="Group_27" data-name="Group 27" transform="translate(40.117 238.578)">
            <path id="Path_52" data-name="Path 52" d="M409.41,372.658l-5.547,13.666s-1.806,8.967,1.733,6.925a24.681,24.681,0,0,1,6.334-2.656l7.8-12.936Z" transform="translate(-395.551 -372.658)" fill="#ffb5ad"/>
            <path id="Path_53" data-name="Path 53" d="M413.912,389.559l8.684,13.078c.389.586-.233,1.087-.917.738-5.609-2.86-20.683-10.64-24.642-12.7-.48-.249-.637-.768-.313-1.033,1.794-1.464,8.257-7.171,8.608-7.057,0,0,.53,6.035,2.421,6.4a16.259,16.259,0,0,0,5,.017A1.045,1.045,0,0,1,413.912,389.559Z" transform="translate(-396.553 -371.204)" fill="#2d4a73"/>
            <line id="Line_10" data-name="Line 10" x1="3.021" y2="0.851" transform="translate(16.401 20.39)" fill="#b3009c" stroke="#fff" stroke-linecap="round" stroke-miterlimit="10" stroke-width="0.582"/>
            <line id="Line_11" data-name="Line 11" x1="3.021" y2="0.851" transform="translate(17.217 22.171)" fill="#b3009c" stroke="#fff" stroke-linecap="round" stroke-miterlimit="10" stroke-width="0.582"/>
          </g>
          <line id="Line_12" data-name="Line 12" x1="24.485" y1="15.464" transform="translate(50.623 228.327)" fill="none" stroke="#fff" stroke-miterlimit="10" stroke-width="0.43" opacity="0.5"/>
          <line id="Line_13" data-name="Line 13" x1="30.746" y1="0.115" transform="translate(98.303 242.503)" fill="none" stroke="#fff" stroke-miterlimit="10" stroke-width="0.43" opacity="0.5"/>
          <g id="Group_28" data-name="Group 28" transform="translate(49.978 93.423)">
            <path id="Path_54" data-name="Path 54" d="M453.05,246.622c-4.127,8.764-5.781,11.983-8.361,22.606-2.99,12.319-6.356,38.436-9.367,52.539-3.746,17.541-20.819,57.723-30.167,74.556.7,1.043,5.466,4.628,9.987,7.41,14.2-17.507,35.955-53.752,43.17-75.4,5.338-16.011,6.158-25.453,7.987-34.711.376-1.905,2.958-1.98,3.127-.045.66,7.53-.123,17.448-1.127,37.665-1.153,23.2-6.646,61.978-5.8,76.675,2.414,0,9.731.322,13.209.322,5.211-25.468,16.317-71.835,17.074-79.576,2.952-30.155,7.426-51.918-10.926-81.209C470.758,247.723,462.192,246.8,453.05,246.622Z" transform="translate(-405.155 -245.955)" fill="#2d4a73"/>
            <path id="Path_55" data-name="Path 55" d="M447.871,246.707,484.7,268a97.438,97.438,0,0,0-10.025-21.965Z" transform="translate(-398.902 -246.04)" fill="#2d4a73" style="mix-blend-mode: multiply;isolation: isolate"/>
          </g>
          <g id="Group_29" data-name="Group 29" transform="translate(82.582 44.369)">
            <path id="Path_56" data-name="Path 56" d="M472.221,210c-.044.072,3.1,3,3.279,3.591,1.154,3.788,3.577,7,4.727,14.845,1.738,11.856-.932,18.018-4.971,23.921l-27.649.311S441.844,215.9,445.77,208.7c0,0,12.522-2.305,14.711-2.1C460.481,206.594,472.232,215.856,472.221,210Z" transform="translate(-432.013 -202.762)" fill="#fff"/>
            <path id="Path_57" data-name="Path 57" d="M467.964,241.345,475.15,302.8l15.881,2.117L478.113,239.9a33.192,33.192,0,0,0,0-9.827c-1.933-16.27-7.088-19.329-7.41-19.652S467.964,241.345,467.964,241.345Z" transform="translate(-428.564 -202.201)" fill="#ff6b99"/>
            <path id="Path_58" data-name="Path 58" d="M468.448,206.623l-.483,35.277,5.316-24.646-2.578-1.933,2.416-2.094Z" transform="translate(-428.564 -202.756)" fill="#f995b4"/>
            <path id="Path_59" data-name="Path 59" d="M470.418,241.879c-.16-.322-.825,61.457-.825,61.457s-28.266,2.806-36-8.471c0,0,10.728-41.71,12.661-45.576s-.966-26.417-.966-26.417l11.438-16.109Z" transform="translate(-433.595 -202.736)" fill="#ff6b99"/>
            <path id="Path_60" data-name="Path 60" d="M459.455,203.25s4.672,19.331,8.055,39.305L454.945,220l2.577-2.577-5.155-9.987Z" transform="translate(-430.847 -203.25)" fill="#f995b4"/>
          </g>
          <g id="Group_32" data-name="Group 32" transform="translate(0 112.935)">
            <g id="Group_30" data-name="Group 30" transform="translate(0 0)">
              <rect id="Rectangle_16" data-name="Rectangle 16" width="69.53" height="48.009" transform="matrix(-0.793, -0.609, 0.609, -0.793, 55.162, 80.414)" fill="#8ebff4"/>
              <rect id="Rectangle_17" data-name="Rectangle 17" width="69.53" height="15.987" transform="matrix(-0.793, -0.609, 0.609, -0.793, 55.162, 80.414)" fill="#7aa4d1"/>
              <rect id="Rectangle_18" data-name="Rectangle 18" width="24.735" height="24.735" rx="6.514" transform="translate(56.417 40.627) rotate(-142.501)" fill="none" stroke="#8ebff4" stroke-miterlimit="10" stroke-width="4.071"/>
            </g>
            <g id="Group_31" data-name="Group 31" transform="translate(17.08 30.291)">
              <rect id="Rectangle_19" data-name="Rectangle 19" width="4.553" height="6.622" rx="0.814" transform="matrix(-0.793, -0.609, 0.609, -0.793, 3.612, 8.025)" fill="#fff"/>
              <rect id="Rectangle_20" data-name="Rectangle 20" width="4.553" height="6.622" rx="0.814" transform="matrix(-0.793, -0.609, 0.609, -0.793, 34.148, 31.455)" fill="#fff"/>
            </g>
          </g>
          <g id="Group_34" data-name="Group 34" transform="translate(51.267 48.079)">
            <g id="Group_33" data-name="Group 33" transform="translate(0 13.806)">
              <path id="Path_61" data-name="Path 61" d="M408.105,279.837c2.939-4.949,35.265-61.308,35.265-61.308l9.25,10.365c-2.018,7.716-29.776,50.974-30.823,51.964,0,0-.2,5.667-.392,5.4s-3.546-3.827-3.815-3.635-5.163,6.705-6.006,6.089,1.971-4.641,1.549-4.949-2.622,4.293-3.5,3.907,1.55-4.948,1.089-5.026-2.162,4.371-2.813,4.024,1.549-4.949,1.357-5.218-1.893,4.18-2.813,4.024C405.757,285.352,407.355,281.1,408.105,279.837Z" transform="translate(-406.279 -218.529)" fill="#ffb5ad"/>
              <path id="Path_62" data-name="Path 62" d="M427.267,266.786l11.865-43.47,6.531,13.187Z" transform="translate(-403.207 -217.828)" fill="#ff9385"/>
            </g>
            <path id="Path_63" data-name="Path 63" d="M457.777,206.965c-1.021-1.136-8.537-.484-12.725,4.51s-29.64,54.125-29.64,54.125l12.726,7.249s29.93-43.98,32.055-50.742C461.966,216.469,460.677,210.187,457.777,206.965Z" transform="translate(-404.942 -206.486)" fill="#ff6b99"/>
            <path id="Path_64" data-name="Path 64" d="M411.917,261.155l13.124,7.578a1.276,1.276,0,0,0,1.744-.468h0a1.276,1.276,0,0,0-.467-1.744l-13.124-7.577a1.276,1.276,0,0,0-1.744.467h0A1.276,1.276,0,0,0,411.917,261.155Z" transform="translate(-405.547 -198.832)" fill="#ff578c"/>
          </g>
          <g id="Group_36" data-name="Group 36" transform="translate(126.654)">
            <g id="Group_35" data-name="Group 35" transform="translate(5.631)">
              <path id="Path_65" data-name="Path 65" d="M503.183,213.923c2.569-9.967,5.551-21.7,5.709-29.865.134-6.927,1-17.51.33-19.469-.191-.561-5.994,4.508-6.75,8.541a53.944,53.944,0,0,0-.516,8.813s-7.688,19.475-10.812,25.218a23.177,23.177,0,0,1-11.7,10.391c-6.074,2.551.855.484.855.484l7.3,12.258S499.988,226.322,503.183,213.923Z" transform="translate(-476.951 -164.547)" fill="#ffb5ad"/>
              <path id="Path_66" data-name="Path 66" d="M502.711,205.729c-2.329,16.619-17.994,19.874-17.994,19.874l-1.865-3.938S490.744,221.5,502.711,205.729Z" transform="translate(-476.087 -158.518)" fill="#ff9385"/>
            </g>
            <path id="Path_67" data-name="Path 67" d="M472.039,215.411s10.31-.322,16.431-8.376S499.585,184,499.585,184l10.954,3.705s-1.45,46.231-34.15,45.426Z" transform="translate(-472.039 -161.699)" fill="#ff578c"/>
          </g>
        </g>
        <g id="Group_38" data-name="Group 38" transform="translate(157.283)">
          <path id="Path_68" data-name="Path 68" d="M512.226,145.64v6.766" transform="translate(-496.785 -145.64)" fill="none" stroke="#ff6b99" stroke-miterlimit="10" stroke-width="0.845"/>
          <path id="Path_69" data-name="Path 69" d="M524.67,151.241q-2.586,2.569-5.17,5.139" transform="translate(-495.72 -144.82)" fill="none" stroke="#ff6b99" stroke-miterlimit="10" stroke-width="0.845"/>
          <path id="Path_70" data-name="Path 70" d="M504.858,155.853l-6.1-5.179" transform="translate(-498.757 -144.903)" fill="none" stroke="#ff6b99" stroke-miterlimit="10" stroke-width="0.845"/>
        </g>
        <g id="Group_49" data-name="Group 49" transform="translate(240.012 31.921)">
          <g id="Group_48" data-name="Group 48">
            <g id="Group_40" data-name="Group 40" transform="translate(44.634)">
              <path id="Path_71" data-name="Path 71" d="M610.525,188.417c-.393-1.824,2.554-6.533,4.089-7.6,4.2-2.928,9.64-3.775,14.729-3.179,0,0,21.517,13.3-3.541,27.066h0" transform="translate(-609.762 -172.904)" fill="#00152b"/>
              <path id="Path_72" data-name="Path 72" d="M638.192,213.4s9.176-41.292-2.47-39.88-8.116,7.765-8.116,7.765l4.588,1.058,4.235,32.821Z" transform="translate(-607.33 -173.485)" fill="#00152b"/>
              <path id="Path_73" data-name="Path 73" d="M628.853,192.561a.435.435,0,0,0,.473.409c1.026-.1,3.377-.524,3.951,2.133.578,2.687-1.875,4.443-3.425,4.667-.447.064-1.477.248-1.753.605-.846,1.1-1.089,3.367-1.565,6.207a7.912,7.912,0,0,0,4.011,8.645s-15.359,9.312-15.91,1.386c0,0-.016-14.67-.1-14.738-1.364-1.143-6.28-1.252-4.135-11.9,1.985-9.862,9.1-9.8,10.921-9.642C622.86,180.468,628.141,180.334,628.853,192.561Z" transform="translate(-609.853 -172.488)" fill="#f19d9b"/>
              <path id="Path_74" data-name="Path 74" d="M615.459,179.946s11.005,12.159,12.819,13.088C628.278,193.035,633.592,176.539,615.459,179.946Z" transform="translate(-609.035 -172.607)" fill="#00152b"/>
              <g id="Group_39" data-name="Group 39" transform="translate(0 13.896)">
                <path id="Path_75" data-name="Path 75" d="M629.784,194.122s-1.914-3.263-3.561,1.482" transform="translate(-607.459 -184.521)" fill="#ec5f5c"/>
                <path id="Path_76" data-name="Path 76" d="M618.933,191.694a2.422,2.422,0,1,0,2.576,2.257A2.422,2.422,0,0,0,618.933,191.694Z" transform="translate(-608.857 -184.717)" fill="#f7827e"/>
                <path id="Path_77" data-name="Path 77" d="M609.958,193.829a2.423,2.423,0,0,0,.415-4.516A11.8,11.8,0,0,0,609.958,193.829Z" transform="translate(-609.855 -185.064)" fill="#f7827e"/>
                <path id="Path_78" data-name="Path 78" d="M611.62,192.012l3.839,1.506s-1.683,1.469-2.718.838A3.255,3.255,0,0,1,611.62,192.012Z" transform="translate(-609.597 -184.669)" fill="#fff"/>
                <path id="Path_79" data-name="Path 79" d="M614.115,189.465l-.35,2.677-1.329-.452a.341.341,0,0,1-.12-.573Z" transform="translate(-609.511 -185.042)" fill="#ec5f5c"/>
                <path id="Path_80" data-name="Path 80" d="M618.168,188.447c.359.417.037-1.122-.519-1.433a1.083,1.083,0,0,0-1.494.3A3.386,3.386,0,0,1,618.168,188.447Z" transform="translate(-608.933 -185.425)"/>
                <path id="Path_81" data-name="Path 81" d="M611.677,186.617c-.515.194.505-1,1.143-1.01a1.085,1.085,0,0,1,1.165.985A3.383,3.383,0,0,0,611.677,186.617Z" transform="translate(-609.609 -185.607)"/>
                <path id="Path_82" data-name="Path 82" d="M616.321,190.213c-.139.455-.43.769-.651.7s-.287-.492-.148-.947.43-.769.65-.7S616.46,189.758,616.321,190.213Z" transform="translate(-609.036 -185.072)"/>
                <path id="Path_83" data-name="Path 83" d="M613.219,189.054c-.132.436-.41.736-.621.672s-.274-.469-.142-.9.412-.735.623-.671S613.352,188.62,613.219,189.054Z" transform="translate(-609.484 -185.236)"/>
                <path id="Path_84" data-name="Path 84" d="M613.953,199.12a38.822,38.822,0,0,0,6.962.117C623.217,198.883,612.806,213.211,613.953,199.12Z" transform="translate(-609.268 -183.629)"/>
              </g>
            </g>
            <ellipse id="Ellipse_4" data-name="Ellipse 4" cx="48.05" cy="2.764" rx="48.05" ry="2.764" transform="translate(34.622 259.549)" fill="#7ba5c9"/>
            <g id="Group_41" data-name="Group 41" transform="translate(29.902 237.777)">
              <path id="Path_85" data-name="Path 85" d="M618.53,384.5l-1.675,11.887s-2.685,7.884-5.177,4.832a24.578,24.578,0,0,0-4.962-4.665l-.817-12.358Z" transform="translate(-595.702 -380.416)" fill="#f19b9b"/>
              <path id="Path_86" data-name="Path 86" d="M611.28,384.847l-.431,16.169s7.89,1.184,4.958-4.1l1.724-11.211Z" transform="translate(-594.978 -380.32)" fill="#f7827e"/>
              <path id="Path_87" data-name="Path 87" d="M651.574,383.663l3.7,11.857s2.815,2.469,3.831,2.405c1.849-.116,2.818-3.305,2.818-3.305l.3-10.957Z" transform="translate(-589.016 -380.493)" fill="#f19b9b"/>
              <path id="Path_88" data-name="Path 88" d="M656.222,380.9l2.587,19.617s5.3,1.4,2.371-3.879l.647-15.091Z" transform="translate(-588.335 -380.898)" fill="#f7827e"/>
              <path id="Path_89" data-name="Path 89" d="M607.2,395.172l-9.955,8.069c-.51.378-.147,1.016.582,1.021l14.7.119a.857.857,0,0,0,.789-.4l1.109-2.272c.32-.657.958-.71.9-.015l.543,2.194c-.029.345,3.484.251,3.515-.063a61.934,61.934,0,0,0-.563-10.107.733.733,0,0,0-.659-.509h0a1,1,0,0,0-.822.226c-.992.96-4.163,3.847-5.854,3.263a12.364,12.364,0,0,1-3.059-1.5A1.042,1.042,0,0,0,607.2,395.172Z" transform="translate(-597.004 -379.097)" fill="#ff64a5"/>
              <path id="Path_90" data-name="Path 90" d="M661.8,392.872l5.653,9.469a1.845,1.845,0,0,1-.823,2.669c-1.768,1.052-3.212,3.151-4.324,3.181-2.01.056-5.134-2.06-6.954-2.855-1.222-.532-2.179-1.313-2.028-2.334l1.405-9.5c.017-.118.224-.162.327-.069l2.164,1.963c.709.643,2.633.556,3.111-.213.34-.549,1.142-2.32,1.142-2.32A.221.221,0,0,1,661.8,392.872Z" transform="translate(-588.761 -379.156)" fill="#ff64a5"/>
            </g>
            <g id="Group_42" data-name="Group 42" transform="translate(32.949 83.624)">
              <path id="Path_91" data-name="Path 91" d="M639.674,247.551a87.079,87.079,0,0,1,9.6,24.237c3.041,11.9,35.959,112.528,37.393,134.167-3.749.9-28.645.771-31.015.641-7.536-21.6-26.6-91.738-29.834-105.343-.5-2.091-3.728-1.633-3.477.5,1.835,15.537,11.716,80.979,16.642,104.879-1.966,1-30.51.778-32.781.494-2.469-26.649-15.575-127.533,4.211-160.234C619.46,245.647,630.5,247.277,639.674,247.551Z" transform="translate(-599.663 -246.43)" fill="#285073"/>
              <path id="Path_92" data-name="Path 92" d="M611.1,249.926s-8.059,19.943-8.059,48.089,9.226,99.453,9.226,99.453" transform="translate(-599.168 -245.918)" fill="none" stroke="#fff" stroke-miterlimit="10" stroke-width="0.308"/>
              <line id="Line_14" data-name="Line 14" x1="32.185" y1="148.461" transform="translate(35.551 3.089)" fill="none" stroke="#fff" stroke-miterlimit="10" stroke-width="0.308"/>
              <path id="Path_93" data-name="Path 93" d="M625.751,249.811s.274,25.782,11.846,23.749" transform="translate(-595.844 -245.935)" fill="none" stroke="#fff" stroke-miterlimit="10" stroke-width="0.308"/>
              <path id="Path_94" data-name="Path 94" d="M609.154,250.383l37.25,28.05s1.556-15.137-5.062-27.561Z" transform="translate(-598.273 -245.851)" opacity="0.21" style="mix-blend-mode: multiply;isolation: isolate"/>
              <path id="Path_95" data-name="Path 95" d="M604.8,274.575c11.572,2.033,9.71-23.619,9.71-23.619" transform="translate(-598.91 -245.767)" fill="none" stroke="#fff" stroke-miterlimit="10" stroke-width="0.308"/>
            </g>
            <line id="Line_15" data-name="Line 15" x1="32.157" y2="0.005" transform="translate(38.385 235.325)" fill="none" stroke="#fff" stroke-miterlimit="10" stroke-width="0.308"/>
            <line id="Line_16" data-name="Line 16" x1="33.225" y2="0.283" transform="translate(85.692 235.047)" fill="none" stroke="#fff" stroke-miterlimit="10" stroke-width="0.308"/>
            <path id="Path_96" data-name="Path 96" d="M644.322,289.889c0-.2.2-2.3.2-2.3l-.954,3.027Z" transform="translate(-560.286 -156.781)" fill="#d14341"/>
            <path id="Path_97" data-name="Path 97" d="M639.1,292.206l-.666.518s.691,1.259.987,1.16A2.177,2.177,0,0,1,639.1,292.206Z" transform="translate(-561.037 -156.105)" fill="#d14341"/>
            <g id="Group_43" data-name="Group 43" transform="translate(0 47.259)">
              <path id="Path_98" data-name="Path 98" d="M622.9,239.407c.885-1.794,1.819-3.766,2.809-5.938l-8.85-7.322c.161-2.229.252-4.171.2-5.361-.03-.755-.515-1.5-.624-1.442-2.006,1.068-8.449,20.831-9.72,23.711-.4.9-1.7.778-2.428.172L582.7,224.309a49.831,49.831,0,0,1-11.285-9.6c-1.717,3.054,1.505,9.023,3.183,11.535,0,0,22.741,31.682,33.412,33.109,0,0,11.916-3.364,14.125-18.4.929.259,1.55.426,1.55.426C625.352,239.335,624.544,239.045,622.9,239.407Z" transform="translate(-570.921 -214.709)" fill="#f19d9b"/>
              <path id="Path_99" data-name="Path 99" d="M581.939,224.158s-5.484-7.974-6.432-8.259,2.058,5.3,1.188,5.357C576.695,221.256,580.86,223.94,581.939,224.158Z" transform="translate(-570.277 -214.536)" fill="#f19d9b"/>
            </g>
            <path id="Path_100" data-name="Path 100" d="M618.833,210.009s-8.227-1.1-10.642,3.838-7.769,26.984-7.769,26.984l-14.909-14.279-5.774,10.5s21.208,26.773,27.3,24.883S618.9,216.736,618.833,210.009Z" transform="translate(-569.63 -168.153)" fill="#ff6192"/>
            <g id="Group_44" data-name="Group 44" transform="translate(38.859 42.648)">
              <path id="Path_101" data-name="Path 101" d="M612.017,210.687c.264.639-7.5,19.151-7.19,25.414.316,6.312,4.627,16.93,4.291,17.879,0,0,4.9,3.863,31.911-.391,8.3-7.265,1.008-31.959-1.781-39.779,0,0-5.316-2.661-7.606-2.829A36.409,36.409,0,0,1,612.017,210.687Z" transform="translate(-604.818 -210.687)" fill="#ff6192"/>
            </g>
            <g id="Group_47" data-name="Group 47" transform="translate(41.822 44.762)">
              <g id="Group_46" data-name="Group 46" transform="translate(0 33.025)">
                <path id="Path_102" data-name="Path 102" d="M677.261,291.561,610.7,292.844a2.623,2.623,0,0,1-2.566-2.681L607.4,245.4a2.643,2.643,0,0,1,2.476-2.779l66.556-1.283A2.623,2.623,0,0,1,679,244.022l.736,44.761A2.642,2.642,0,0,1,677.261,291.561Z" transform="translate(-607.403 -241.339)" fill="#fff"/>
                <g id="Group_45" data-name="Group 45" transform="translate(15.577 3.331)">
                  <path id="Path_103" data-name="Path 103" d="M650.635,264.409l-12.528,12.947a19.106,19.106,0,0,1,.193-26.1,17,17,0,0,1,24.863.2,19.107,19.107,0,0,1-.193,26.1Z" transform="translate(-619.225 -243.994)" fill="#b6cceb"/>
                  <path id="Path_104" data-name="Path 104" d="M662.57,278.544a17,17,0,0,1-24.864-.2l12.529-12.946Z" transform="translate(-618.543 -241.148)" fill="#285073"/>
                  <path id="Rectangle_21" data-name="Rectangle 21" d="M1.087,0h18.5a1.087,1.087,0,0,1,1.087,1.087v.379a1.087,1.087,0,0,1-1.087,1.087H1.086A1.086,1.086,0,0,1,0,1.466V1.087A1.087,1.087,0,0,1,1.087,0Z" transform="translate(20.672 2.553) rotate(-180)" fill="#ff6192"/>
                  <rect id="Rectangle_22" data-name="Rectangle 22" width="15.2" height="2.042" rx="0.869" transform="translate(1.241 42.946)" fill="#ff6192"/>
                </g>
              </g>
              <path id="Path_105" data-name="Path 105" d="M642.575,262.043s5.627,2.613,1.278,18.565a6.031,6.031,0,0,0-.258,2.664l.977,6.855c.146.734.246,1.72-.377,2.135-.779.518-5.222,4.6-5.762,4.78-1.1.366.1-5.053-.08-7.908a27.356,27.356,0,0,0-.22,2.82L638,294.183c-1.329-.608-1.3-3.166-1.509-4.03a3.343,3.343,0,0,1,.083-2.176,18.8,18.8,0,0,0,1.942-6.028c.107-1.326-.822-6.251-1.591-15.425Z" transform="translate(-603.164 -205.283)" fill="#48838f" opacity="0.6"/>
              <path id="Path_106" data-name="Path 106" d="M644.4,230.467c10.432,58.261,3.656,69.326,2.973,69.78-.854.569-5.724,5.043-6.316,5.241-1.2.4.109-5.539-.087-8.668a29.089,29.089,0,0,0-.242,3.091l-.148,2.443c-1.456-.666-1.426-3.471-1.654-4.417a3.666,3.666,0,0,1,.091-2.384,20.607,20.607,0,0,0,2.129-6.607c.116-1.455-9.77-48.771-11.508-55.724-2.363-9.447.61-20.3,3.937-20.666C637.7,212.1,643.535,225.64,644.4,230.467Z" transform="translate(-604.272 -212.529)" fill="#f19d9b"/>
              <path id="Path_107" data-name="Path 107" d="M651.723,285.594c-.419-1.785,1.825-35.774-5.755-58.01-3.389-9.939-8.267-15.483-12.394-15.027-3.327.367-6.3,11.219-3.937,20.666,1.738,6.953,5.392,37.986,8.436,53.84Z" transform="translate(-604.272 -212.531)" fill="#ff6192"/>
            </g>
          </g>
        </g>
        <g id="Group_50" data-name="Group 50" transform="translate(283.27 44.294)">
          <path id="Path_108" data-name="Path 108" d="M614.12,189.723c-.477,2.6.521,4.957,2.23,5.272s3.483-1.536,3.961-4.133-.52-4.957-2.23-5.272S614.6,187.127,614.12,189.723Z" transform="translate(-607.872 -184.09)" fill="none" stroke="#1e424d" stroke-miterlimit="10" stroke-width="0.432"/>
          <path id="Path_109" data-name="Path 109" d="M608.763,188.055c-.432,2.354.472,4.493,2.021,4.777s3.157-1.392,3.59-3.745-.472-4.493-2.021-4.778S609.2,185.7,608.763,188.055Z" transform="translate(-608.655 -184.277)" fill="none" stroke="#1e424d" stroke-miterlimit="10" stroke-width="0.432"/>
          <line id="Line_17" data-name="Line 17" x1="0.615" y1="0.146" transform="translate(5.297 6.412)" fill="none" stroke="#1e424d" stroke-miterlimit="10" stroke-width="0.432"/>
          <line id="Line_18" data-name="Line 18" y1="0.267" x2="10.367" transform="translate(12.161 7.836)" fill="none" stroke="#1e424d" stroke-miterlimit="10" stroke-width="0.432"/>
        </g>
      </g>
    </g>
  </g>
</svg>
