<svg xmlns="http://www.w3.org/2000/svg" width="1922.462" height="915.225" viewBox="0 0 1922.462 915.225">
  <g id="Group_161" data-name="Group 161" transform="translate(1.236 -164.775)">
    <rect id="Rectangle_15" data-name="Rectangle 15" width="1920" height="914" transform="translate(0 166)" fill="#41436a"/>
    <g id="Group_52" data-name="Group 52" transform="translate(1047.218 281.096)">
      <path id="Path_1" data-name="Path 1" d="M1109.678,136.118H778.728c-185.607,0-336.07,150.465-336.07,336.07s150.463,336.07,336.07,336.07l331.34,3.755Z" transform="translate(-237.285 -136.118)" fill="#d6e1ff" stroke="#d6e1ff" stroke-miterlimit="10" stroke-width="2.449"/>
      <g id="Group_51" data-name="Group 51" transform="translate(0 24.113)">
        <g id="Group_17" data-name="Group 17" transform="translate(373.238 18.479)">
          <g id="Group_16" data-name="Group 16">
            <ellipse id="Ellipse_2" data-name="Ellipse 2" cx="129.619" cy="7.457" rx="129.619" ry="7.457" transform="translate(70.658 614.129)" fill="#7797c9"/>
            <g id="Group_4" data-name="Group 4" transform="translate(46.31 591.735)">
              <path id="Path_2" data-name="Path 2" d="M544.827,394.942l3.971-7.848,23.655.855.531,6.993L561.87,414.225,541.863,398.8Z" transform="translate(-504.814 -385.859)" fill="#f0979d"/>
              <path id="Path_3" data-name="Path 3" d="M548.732,388.629l.993,18.218a85.7,85.7,0,0,0,13.328-9.927l-.985-10.314Z" transform="translate(-494.289 -386.606)" fill="#e66971"/>
              <path id="Path_4" data-name="Path 4" d="M565.819,390.086s6.946-.134,15.032,6c4.814,3.652,12.087-3.88,14.316-5.824.453-.4,1.069-.04,1.144.661l2.8,25.466H528.714a1.748,1.748,0,0,1-1.481-1.927V409.1a1.958,1.958,0,0,1,1.013-1.831Z" transform="translate(-527.233 -381.274)" fill="#264373"/>
              <line id="Line_1" data-name="Line 1" x2="11.332" y2="6.556" transform="translate(34.629 10.149)" fill="none" stroke="#fff" stroke-miterlimit="10" stroke-width="0.395"/>
              <line id="Line_2" data-name="Line 2" x2="11.332" y2="6.556" transform="translate(29.691 12.676)" fill="none" stroke="#fff" stroke-miterlimit="10" stroke-width="0.395"/>
            </g>
            <g id="Group_5" data-name="Group 5" transform="translate(161 589.713)">
              <path id="Path_5" data-name="Path 5" d="M590.117,396.912l3.971-7.848,21.709-3.257,2.477,11.1L607.16,416.2l-20.006-15.426Z" transform="translate(-550.104 -385.808)" fill="#f0979d"/>
              <path id="Path_6" data-name="Path 6" d="M596.146,388.123l-1.97,17.207A85.848,85.848,0,0,0,607.5,395.4l-1.975-8.8Z" transform="translate(-539.343 -384.585)" fill="#e66971"/>
              <path id="Path_7" data-name="Path 7" d="M611.106,390.086s6.949-.134,15.035,6c4.814,3.652,12.087-3.88,14.315-5.824.453-.4,1.069-.04,1.145.661l2.8,25.466H574a1.748,1.748,0,0,1-1.481-1.927V409.1a1.957,1.957,0,0,1,1.013-1.831Z" transform="translate(-572.523 -379.252)" fill="#264373"/>
              <line id="Line_3" data-name="Line 3" x2="11.332" y2="6.556" transform="translate(33.037 12.676)" fill="none" stroke="#fff" stroke-miterlimit="10" stroke-width="0.395"/>
              <line id="Line_4" data-name="Line 4" x2="11.332" y2="6.556" transform="translate(28.098 15.203)" fill="none" stroke="#fff" stroke-miterlimit="10" stroke-width="0.395"/>
            </g>
            <path id="Path_8" data-name="Path 8" d="M561.372,184.943a9.651,9.651,0,0,0,3.743,3.363c3.282,1.307,7.478-1.428,11.148-4.275,3.611-2.8,10.5,1.763,11.57,2.5l8.294,26.823-.646.349.243.474h0l.246.476,8.324-4.485.063-.21c6.118-20.122,5.731-24.64,2.816-33.412-7.714-12.485-32.113-19.178-33.954-20.7A12.4,12.4,0,0,0,559,154.633c-8.549,5.189-6.941,16.83-2.051,24.62A11.071,11.071,0,0,0,561.372,184.943Zm8.77-27.339c-6.354-1.712-12.677,1.535-14.11,8.23a9.525,9.525,0,0,1,4.561-8.423A9.1,9.1,0,0,1,570.141,157.6Zm29.6,53.813-1.808.972a8.864,8.864,0,0,1,3.642-2.239Z" transform="translate(-441.535 -152.937)" fill="#264373"/>
            <g id="Group_6" data-name="Group 6" transform="translate(80.73 292.591)">
              <path id="Path_9" data-name="Path 9" d="M550.812,268.478s-9.053,108.289-9.9,138.209,5.156,163.3,5.156,163.3l30.3.666s33.668-223.77,70.245-295.929Z" transform="translate(-540.825 -268.478)" fill="#d14c62"/>
              <path id="Path_10" data-name="Path 10" d="M580.692,270.735s-25.759,125.1-25.759,144.309-3.8,151.2-3.8,151.2" transform="translate(-525.032 -265.019)" fill="none" stroke="#fff" stroke-miterlimit="10" stroke-width="0.395"/>
              <line id="Line_5" data-name="Line 5" x1="32.682" transform="translate(4.913 287.611)" fill="none" stroke="#fff" stroke-miterlimit="10" stroke-width="0.395"/>
            </g>
            <g id="Group_8" data-name="Group 8" transform="translate(97.071 292.738)">
              <path id="Path_11" data-name="Path 11" d="M547.278,268.536s14.5,90.122,35.762,153.983c17.182,51.607,62.286,149.766,62.286,149.766l35.18-.383L643.827,424.054a128.432,128.432,0,0,1-3.682-23.521c-1.887-29.988,4.277-90.585,6.855-129.414Z" transform="translate(-547.278 -268.536)" fill="#ff5c77"/>
              <g id="Group_7" data-name="Group 7" transform="translate(31.438 0.525)">
                <path id="Path_12" data-name="Path 12" d="M576.55,269.142s-9.892,117-1,135.2S627.79,570.7,627.79,570.7" transform="translate(-541.075 -268.133)" fill="none" stroke="#000d2b" stroke-miterlimit="10" stroke-width="0.395"/>
                <line id="Line_6" data-name="Line 6" x1="36.429" transform="translate(61.127 289.46)" fill="none" stroke="#000d2b" stroke-miterlimit="10" stroke-width="0.395"/>
                <line id="Line_7" data-name="Line 7" x2="31.533" y2="41.351" fill="none" stroke="#000d2b" stroke-miterlimit="10" stroke-width="0.395"/>
              </g>
            </g>
            <g id="Group_9" data-name="Group 9" transform="translate(0 22.389)">
              <path id="Path_13" data-name="Path 13" d="M644.7,261.608s1.2-9.717-7.787-11.13-33.2-7.833-94.766,13.191c0,0-10.664-59.612-10.768-64.433-.271-12.55-4.249-28.841-13.961-37.446-.8-.7-1.375,31.123-1.725,48.107,0,0-8.195,85.51,1.8,94.108S654.641,290.905,644.7,261.608Z" transform="translate(-503.448 -161.778)" fill="#f0979d"/>
              <path id="Path_14" data-name="Path 14" d="M572.417,228.624s93.234-23.326,92.223,3.771-136.75,77.87-148.105,62.739c-18.025-24.022,1.714-106.278,1.714-106.278l22.285-9.942,6.513,55.882Z" transform="translate(-508.946 -135.521)" fill="#264373"/>
              <path id="Path_15" data-name="Path 15" d="M536.563,247.9c5.4,6.48,58.27-7.126,64.066-15.954,0,0,.9-29.591-1.35-30.2C576.329,195.523,536.563,247.9,536.563,247.9Z" transform="translate(-466.626 -101.323)" fill="#203961"/>
            </g>
            <g id="Group_10" data-name="Group 10" transform="translate(82.672 99.38)">
              <path id="Path_16" data-name="Path 16" d="M631.4,197.167s47.289,4.829,50.267,43.987S660.21,402.681,660.21,402.681l-118.618,2.056,6.617-154.325a56.994,56.994,0,0,1,8.911-28.01c4.943-7.721,10.732-16.473,14.022-16.883l49.645-13.338Z" transform="translate(-541.592 -192.181)" fill="#264373"/>
              <path id="Path_17" data-name="Path 17" d="M640.751,201.945c28.73-11.525,39.011,9.671,40.5,29.249,2.975,39.16-22.138,160.841-22.138,160.841l-117.251,3.429" transform="translate(-541.178 -182.221)" fill="#203961"/>
            </g>
            <g id="Group_11" data-name="Group 11" transform="translate(128.882 64.545)">
              <path id="Path_18" data-name="Path 18" d="M588.549,182.826l4.958,30.434-29.626,19.064-4.042-11.879,2.127-22,22.115-20.021s3.4,2.421,3.829,3.3A4.953,4.953,0,0,0,588.549,182.826Z" transform="translate(-559.84 -178.425)" fill="#f0979d"/>
              <path id="Path_19" data-name="Path 19" d="M583.741,178.425l-22.115,20.021-1.562,13.087S580.14,206,580.839,189.41" transform="translate(-559.498 -178.425)" fill="#000d2b"/>
            </g>
            <g id="Group_13" data-name="Group 13" transform="translate(0.046 113.603)">
              <g id="Group_12" data-name="Group 12" transform="translate(0 9.59)">
                <path id="Path_20" data-name="Path 20" d="M602.957,317.925,576.6,235.211a16.434,16.434,0,0,0-9.081-10.147L513.542,201.75a2.04,2.04,0,0,0-2.677,2.588L537.5,285.377a16.453,16.453,0,0,0,8.61,9.81l54.112,25.286A2.039,2.039,0,0,0,602.957,317.925Z" transform="translate(-506.221 -201.584)" fill="#264373"/>
                <path id="Path_21" data-name="Path 21" d="M601.17,319.838l-26.362-82.717a16.442,16.442,0,0,0-9.078-10.147l-53.975-23.31a2.041,2.041,0,0,0-2.679,2.588l26.635,81.038a16.446,16.446,0,0,0,8.607,9.808l54.114,25.288A2.041,2.041,0,0,0,601.17,319.838Z" transform="translate(-508.964 -198.653)" fill="#7fb7f4"/>
                <path id="Path_22" data-name="Path 22" d="M552.068,225.53,532.2,231.418l25.1,10.17Z" transform="translate(-473.366 -164.891)" fill="#000d2b" stroke="#19224a" stroke-miterlimit="10" stroke-width="0"/>
              </g>
              <path id="Path_23" data-name="Path 23" d="M536.238,248.888c2.917,2.618,63.78,69.66,94.976,77.89,9.1,2.4,15.817-5.5,20.57-13.715l31.371-60.843-41.8-32.432c-.3.461-22.141,37.59-27.172,56.216-1.654,6.126-4.52,5.657-9.491,2.613l-38.145-23.513s.063-6.668-.785-9.19c-1.611-4.794-9.258-11.231-9.258-11.231l3.312,10.17c.6,1.714,2.55,2.953-.532,3.322l-24.225-17.952s-2.208-.18-.114,2.2,4.358,4.877,4.067,5.055-6.916-4.459-7.2-2.677,5.4,6.068,5.171,6.245-6.45-4.936-6.8-3.272,4.358,4.877,4.591,5.533-5.115-3.449-5.346-2.558S534.572,247.389,536.238,248.888Z" transform="translate(-477.624 -164.099)" fill="#f0979d"/>
              <path id="Path_24" data-name="Path 24" d="M634.386,220.618s11.907-33.44,34.876-19.36,2.385,80.17-6.8,96.8c-7.572,13.7-16.632,40.789-29.049,58.647-8.671,12.474-33.43,10.894-44.418.4l-47.806-45.656,11.315-21.6,39.768,17.142Z" transform="translate(-459.59 -197.798)" fill="#264373"/>
            </g>
            <g id="Group_15" data-name="Group 15" transform="translate(117.233 27.61)">
              <path id="Path_25" data-name="Path 25" d="M593.281,193.357a1.013,1.013,0,0,0,1.664.39c1.8-1.768,5.386-4.191,6.67,2.849,1.747,9.557-8.228,7.914-9.023,9.2-1.61,2.611-6.782,11.378-14.49,14.781-4.7,2.074-11.654,2.4-16.782-2.525s-7.427-1.552-5.275-54.213c0,0,2.35,4.535,5.731,5.7s8.795-3.517,12.641-4.591c3.125-.871,9.185-3.163,12.887,7.708C589.007,177.657,591.714,189.214,593.281,193.357Z" transform="translate(-555.24 -163.84)" fill="#f0979d"/>
              <g id="Group_14" data-name="Group 14" transform="translate(0.185 13.37)">
                <path id="Path_26" data-name="Path 26" d="M555.627,178.8s3.095,1.54,10.656.828c0,0-4.069,5.513-7.048,4.447S555.627,178.8,555.627,178.8Z" transform="translate(-554.832 -154.281)" fill="#fff"/>
                <path id="Path_27" data-name="Path 27" d="M576.152,177.564l-5.27,3.973S572.847,171.932,576.152,177.564Z" transform="translate(-531.456 -158.892)" fill="#e66971"/>
                <path id="Path_28" data-name="Path 28" d="M558.066,175.653c0,1.152.456,2.084,1.018,2.084s1.018-.932,1.018-2.084-.456-2.082-1.018-2.082S558.066,174.5,558.066,175.653Z" transform="translate(-551.094 -162.298)" fill="#000d2b"/>
                <path id="Path_29" data-name="Path 29" d="M555.451,175.252c0,1.15.456,2.082,1.018,2.082s1.018-.932,1.018-2.082-.456-2.084-1.018-2.084S555.451,174.1,555.451,175.252Z" transform="translate(-555.102 -162.916)" fill="#000d2b"/>
                <path id="Path_30" data-name="Path 30" d="M565.937,173.5c1.507,1.051-.853-3.712-2.9-4.242a3.58,3.58,0,0,0-4.52,2.32A11.03,11.03,0,0,1,565.937,173.5Z" transform="translate(-550.406 -169.119)" fill="#000d2b"/>
                <path id="Path_31" data-name="Path 31" d="M555.349,172.382a11.084,11.084,0,0,1,3.715.1,3.747,3.747,0,0,0-3.75-2.965" transform="translate(-555.313 -168.509)" fill="#000d2b"/>
                <path id="Path_32" data-name="Path 32" d="M558.568,174.055l-3.1,8.823a.23.23,0,0,0,.18.312l3.662.279a.221.221,0,0,0,.223-.246l-.557-9.1A.207.207,0,0,0,558.568,174.055Z" transform="translate(-555.101 -161.78)" fill="#e66971"/>
              </g>
            </g>
          </g>
          <path id="Path_33" data-name="Path 33" d="M589.885,188.526l-28.8,21.6.685,23.656,37.369-33.6Z" transform="translate(-429.047 -98.403)" fill="#fff"/>
          <path id="Path_34" data-name="Path 34" d="M565.334,190.692l3.086,17.142-5.485,18.513-6.857-21.6Z" transform="translate(-436.723 -95.083)" fill="#fff"/>
        </g>
        <g id="Group_37" data-name="Group 37" transform="translate(0 47.879)">
          <ellipse id="Ellipse_3" data-name="Ellipse 3" cx="129.619" cy="7.457" rx="129.619" ry="7.457" transform="translate(37.992 588.752)" fill="#839ec9"/>
          <g id="Group_24" data-name="Group 24" transform="translate(68.174 24.295)">
            <g id="Group_18" data-name="Group 18">
              <path id="Path_35" data-name="Path 35" d="M566.171,269.247,605.9,210.268c2.033-2.917.785-13.718-.919-16.886-4.665-8.671-12.657-15.516-21.74-17.8-39.908-10.023-194.757,35.39-194.757,35.39S415.427,332.24,539.042,325.514" transform="translate(-388.48 -174.14)" fill="#02192b" stroke="#02192b" stroke-miterlimit="10" stroke-width="0.401"/>
            </g>
            <g id="Group_23" data-name="Group 23" transform="translate(169.915 15.02)">
              <path id="Path_36" data-name="Path 36" d="M466.225,196.375a.754.754,0,0,1-1.086.337c-1.613-1.015-5.718-2.955-8.681,1.294-3,4.3,2.515,8.838,4.887,10.512a3.377,3.377,0,0,1,1.337,2.1c.549,2.654,1.621,12.52,2.12,21.183.436,7.549-5.391,23.969-5.391,23.969s27.084,10.646,30.107,1.393c0,0-6.536-24.951-4.287-30.986.051-.132,11.578,2.672,17.438-17.258,5.523-18.783-7.772-25.3-10.881-26.514C489.163,181.375,476.706,175.237,466.225,196.375Z" transform="translate(-455.562 -178.971)" fill="#f0a7a5"/>
              <g id="Group_19" data-name="Group 19" transform="translate(9.561)">
                <path id="Path_37" data-name="Path 37" d="M495.4,185.206s-20.3,24.04-36.051,12.021C459.353,197.227,470.285,168.715,495.4,185.206Z" transform="translate(-459.353 -180.072)" fill="#02192b" stroke="#02192b" stroke-miterlimit="10" stroke-width="0.401"/>
                <path id="Path_38" data-name="Path 38" d="M489.971,182.836a127.382,127.382,0,0,1-15.349,12.895,26.658,26.658,0,0,1-8,4.3c-2.125.6-4.969.393-5.817-1.649a5.088,5.088,0,0,1-.258-2.1,43.644,43.644,0,0,1,.907-7.779" transform="translate(-457.529 -175.836)" fill="none" stroke="#02192b" stroke-miterlimit="10" stroke-width="0.401"/>
              </g>
              <g id="Group_22" data-name="Group 22" transform="translate(0 15.676)">
                <g id="Group_20" data-name="Group 20" transform="translate(2.747)">
                  <path id="Path_39" data-name="Path 39" d="M471.165,190.49a5,5,0,1,1-6.843,1.788A5,5,0,0,1,471.165,190.49Z" transform="translate(-445.976 -180.836)" fill="#f08884"/>
                  <path id="Path_40" data-name="Path 40" d="M479.155,195.447l-10.7-2.489s1.476,5.764,4.7,5.943S479.155,195.447,479.155,195.447Z" transform="translate(-438.589 -176.001)" fill="#fff"/>
                  <path id="Path_41" data-name="Path 41" d="M472.715,190.846l-1.828,5.265,2.869.4a.7.7,0,0,0,.752-.95Z" transform="translate(-434.864 -179.237)" fill="#cd5671"/>
                  <path id="Path_42" data-name="Path 42" d="M469.232,188.59c-1.124.471,1.041-2.259,2.451-2.325a2.406,2.406,0,0,1,2.657,2.089A7.494,7.494,0,0,0,469.232,188.59Z" transform="translate(-437.879 -186.262)" fill="#02192b"/>
                  <path id="Path_43" data-name="Path 43" d="M476.72,187.742a2.506,2.506,0,0,0-3.335.919,7.436,7.436,0,0,1,3.419,1.172" transform="translate(-431.036 -184.412)" fill="#02192b"/>
                  <path id="Path_44" data-name="Path 44" d="M469.874,191.118c-.164.967.081,1.818.552,1.9s.983-.641,1.15-1.611-.084-1.818-.552-1.9S470.039,190.148,469.874,191.118Z" transform="translate(-436.495 -181.297)" fill="#02192b"/>
                  <path id="Path_45" data-name="Path 45" d="M472.508,191.528c-.157.927.078,1.737.527,1.816s.942-.613,1.1-1.537-.079-1.737-.527-1.816S472.667,190.6,472.508,191.528Z" transform="translate(-432.456 -180.557)" fill="#02192b"/>
                  <path id="Path_46" data-name="Path 46" d="M456.662,190.083s2.811-6.42,6.377,2.183" transform="translate(-456.662 -183.934)" fill="#cf4c48"/>
                </g>
                <g id="Group_21" data-name="Group 21" transform="translate(0 11.151)">
                  <path id="Path_47" data-name="Path 47" d="M461.517,191.2s-12.366,9.479-.907,19.993a1.3,1.3,0,0,0,1.805-.056C464.878,208.6,470.945,200.629,461.517,191.2Z" transform="translate(-455.324 -189.844)" fill="#fff"/>
                  <path id="Path_48" data-name="Path 48" d="M455.577,191.04l6.164,8.839,5.788-9.215Z" transform="translate(-455.577 -190.665)" fill="#ff578c"/>
                </g>
              </g>
              <path id="Path_49" data-name="Path 49" d="M474.394,200.412a29.953,29.953,0,0,1-5.738-.957,20.09,20.09,0,0,1-4.275-1.684.967.967,0,0,0-1.236,1.423s9.078,14.361,10.77,11.256C475.2,208.092,472.661,202.475,474.394,200.412Z" transform="translate(-444.275 -153.137)" fill="#02192b"/>
            </g>
          </g>
          <g id="Group_26" data-name="Group 26" transform="translate(227.35 546.515)">
            <path id="Path_50" data-name="Path 50" d="M464.738,380.744l-8.894,32.475s5.338,19.487,10.294,11.943A54.706,54.706,0,0,1,476,413.632l10.446-33.273Z" transform="translate(-444.429 -380.359)" fill="#ffb5ad"/>
            <g id="Group_25" data-name="Group 25" transform="translate(0 27.896)">
              <path id="Path_51" data-name="Path 51" d="M485.256,396.609l30.12,17.187c1.35.77.623,2.375-1.076,2.365-13.908-.076-51.379-.461-61.23-.587-1.2-.015-2.018-.881-1.641-1.727,2.084-4.67,9.175-22.348,9.98-22.472,0,0,7.035,11.383,11.137,10.236a35.953,35.953,0,0,0,9.874-4.928A2.31,2.31,0,0,1,485.256,396.609Z" transform="translate(-451.336 -391.375)" fill="#2d4a73"/>
              <line id="Line_8" data-name="Line 8" x1="5.115" y2="4.679" transform="translate(34.896 7.202)" fill="#b3009c" stroke="#fff" stroke-linecap="round" stroke-miterlimit="10" stroke-width="0.582"/>
              <line id="Line_9" data-name="Line 9" x1="5.115" y2="4.679" transform="translate(38.275 9.907)" fill="#b3009c" stroke="#fff" stroke-linecap="round" stroke-miterlimit="10" stroke-width="0.582"/>
            </g>
          </g>
          <g id="Group_27" data-name="Group 27" transform="translate(88.619 527.013)">
            <path id="Path_52" data-name="Path 52" d="M416.674,372.658,404.42,402.846s-3.988,19.808,3.829,15.3a54.52,54.52,0,0,1,13.991-5.867L439.48,383.7Z" transform="translate(-386.058 -372.658)" fill="#ffb5ad"/>
            <path id="Path_53" data-name="Path 53" d="M434.9,397.987l19.183,28.889c.858,1.294-.514,2.4-2.026,1.631-12.391-6.318-45.689-23.5-54.433-28.043-1.061-.55-1.408-1.7-.691-2.282,3.963-3.234,18.241-15.84,19.016-15.589,0,0,1.17,13.33,5.348,14.148a35.915,35.915,0,0,0,11.036.038A2.308,2.308,0,0,1,434.9,397.987Z" transform="translate(-396.553 -357.441)" fill="#2d4a73"/>
            <line id="Line_10" data-name="Line 10" x1="6.672" y2="1.881" transform="translate(36.229 45.04)" fill="#b3009c" stroke="#fff" stroke-linecap="round" stroke-miterlimit="10" stroke-width="0.582"/>
            <line id="Line_11" data-name="Line 11" x1="6.672" y2="1.881" transform="translate(38.032 48.975)" fill="#b3009c" stroke="#fff" stroke-linecap="round" stroke-miterlimit="10" stroke-width="0.582"/>
          </g>
          <line id="Line_12" data-name="Line 12" x1="54.086" y1="34.16" transform="translate(111.825 504.371)" fill="none" stroke="#fff" stroke-miterlimit="10" stroke-width="0.43" opacity="0.5"/>
          <line id="Line_13" data-name="Line 13" x1="67.918" y1="0.254" transform="translate(217.15 535.684)" fill="none" stroke="#fff" stroke-miterlimit="10" stroke-width="0.43" opacity="0.5"/>
          <g id="Group_28" data-name="Group 28" transform="translate(110.401 206.371)">
            <path id="Path_54" data-name="Path 54" d="M510.955,246.622c-9.116,19.36-12.771,26.471-18.469,49.936-6.6,27.213-14.039,84.905-20.692,116.058-8.276,38.748-45.988,127.51-66.639,164.692,1.537,2.3,12.074,10.223,22.062,16.369,31.366-38.672,79.425-118.738,95.361-166.551,11.791-35.367,13.6-56.226,17.643-76.675.831-4.209,6.534-4.373,6.908-.1,1.459,16.633-.271,38.543-2.489,83.2-2.547,51.253-14.68,136.907-12.809,169.375,5.333,0,21.495.712,29.178.712,11.512-56.259,36.043-158.683,37.717-175.781,6.521-66.611,16.4-114.686-24.136-179.39C550.07,249.053,531.148,247.015,510.955,246.622Z" transform="translate(-405.155 -245.148)" fill="#2d4a73"/>
            <path id="Path_55" data-name="Path 55" d="M447.871,247.514l81.355,47.046a215.241,215.241,0,0,0-22.146-48.52Z" transform="translate(-339.699 -246.04)" fill="#2d4a73" style="mix-blend-mode: multiply;isolation: isolate"/>
          </g>
          <g id="Group_29" data-name="Group 29" transform="translate(182.422 98.011)">
            <path id="Path_56" data-name="Path 56" d="M505.855,214.137c-.1.16,6.845,6.63,7.243,7.931,2.55,8.367,7.9,15.473,10.441,32.792,3.839,26.19-2.059,39.8-10.98,52.84l-61.076.686s-12.73-81.228-4.057-97.131c0,0,27.661-5.093,32.5-4.647C479.921,206.609,505.881,227.07,505.855,214.137Z" transform="translate(-417.038 -198.146)" fill="#fff"/>
            <path id="Path_57" data-name="Path 57" d="M467.964,278.738,483.837,414.5l35.081,4.677L490.383,275.538s1.656-7.764,0-21.707c-4.269-35.939-15.657-42.7-16.369-43.41S467.964,278.738,467.964,278.738Z" transform="translate(-380.929 -192.271)" fill="#ff6b99"/>
            <path id="Path_58" data-name="Path 58" d="M469.032,206.623l-1.068,77.927,11.743-54.442-5.694-4.27,5.338-4.626Z" transform="translate(-380.929 -198.082)" fill="#f995b4"/>
            <path id="Path_59" data-name="Path 59" d="M514.937,284.334c-.354-.712-1.823,135.757-1.823,135.757s-62.438,6.2-79.519-18.712c0,0,23.7-92.137,27.967-100.677s-2.135-58.356-2.135-58.356l25.265-35.585Z" transform="translate(-433.595 -197.867)" fill="#ff6b99"/>
            <path id="Path_60" data-name="Path 60" d="M468.025,203.25s10.319,42.7,17.792,86.825l-27.755-49.817,5.693-5.693L452.367,212.5Z" transform="translate(-404.829 -203.25)" fill="#f995b4"/>
          </g>
          <g id="Group_32" data-name="Group 32" transform="translate(0 249.472)">
            <g id="Group_30" data-name="Group 30" transform="translate(0 0)">
              <rect id="Rectangle_16" data-name="Rectangle 16" width="153.59" height="106.05" transform="matrix(-0.793, -0.609, 0.609, -0.793, 121.852, 177.634)" fill="#8ebff4"/>
              <rect id="Rectangle_17" data-name="Rectangle 17" width="153.59" height="35.315" transform="matrix(-0.793, -0.609, 0.609, -0.793, 121.852, 177.634)" fill="#7aa4d1"/>
              <rect id="Rectangle_18" data-name="Rectangle 18" width="54.639" height="54.639" rx="6.514" transform="translate(124.625 89.743) rotate(-142.501)" fill="none" stroke="#8ebff4" stroke-miterlimit="10" stroke-width="4.071"/>
            </g>
            <g id="Group_31" data-name="Group 31" transform="translate(37.73 66.911)">
              <rect id="Rectangle_19" data-name="Rectangle 19" width="10.056" height="14.628" rx="0.814" transform="matrix(-0.793, -0.609, 0.609, -0.793, 7.978, 17.727)" fill="#fff"/>
              <rect id="Rectangle_20" data-name="Rectangle 20" width="10.056" height="14.628" rx="0.814" transform="matrix(-0.793, -0.609, 0.609, -0.793, 75.432, 69.485)" fill="#fff"/>
            </g>
          </g>
          <g id="Group_34" data-name="Group 34" transform="translate(113.248 106.206)">
            <g id="Group_33" data-name="Group 33" transform="translate(0 30.497)">
              <path id="Path_61" data-name="Path 61" d="M410.313,353.957c6.493-10.932,77.9-135.428,77.9-135.428l20.434,22.9c-4.457,17.045-65.776,112.6-68.088,114.787,0,0-.443,12.517-.866,11.922s-7.833-8.453-8.428-8.03S419.86,374.915,418,373.553s4.353-10.251,3.421-10.932-5.791,9.484-7.741,8.63,3.424-10.93,2.406-11.1-4.776,9.656-6.214,8.889,3.421-10.932,3-11.527-4.181,9.233-6.214,8.889C405.127,366.14,408.657,356.745,410.313,353.957Z" transform="translate(-406.279 -218.529)" fill="#ffb5ad"/>
              <path id="Path_62" data-name="Path 62" d="M427.267,319.341l26.209-96.025,14.426,29.13Z" transform="translate(-374.118 -211.193)" fill="#ff9385"/>
            </g>
            <path id="Path_63" data-name="Path 63" d="M509,207.544c-2.256-2.51-18.858-1.069-28.109,9.962s-65.474,119.561-65.474,119.561l28.112,16.012s66.115-97.152,70.81-112.087C518.249,228.537,515.4,214.66,509,207.544Z" transform="translate(-392.284 -206.486)" fill="#ff6b99"/>
            <path id="Path_64" data-name="Path 64" d="M412.689,264.035l28.991,16.739a2.819,2.819,0,0,0,3.852-1.033h0a2.82,2.82,0,0,0-1.031-3.852L415.51,259.152a2.819,2.819,0,0,0-3.852,1.031h0A2.819,2.819,0,0,0,412.689,264.035Z" transform="translate(-398.617 -126.363)" fill="#ff578c"/>
          </g>
          <g id="Group_36" data-name="Group 36" transform="translate(279.776)">
            <g id="Group_35" data-name="Group 35" transform="translate(12.44)">
              <path id="Path_65" data-name="Path 65" d="M534.9,273.619c5.675-22.016,12.262-47.928,12.611-65.971.3-15.3,2.211-38.679.729-43.007-.423-1.238-13.242,9.957-14.911,18.866-1.418,7.554-1.14,19.469-1.14,19.469S515.2,246,508.3,258.683a51.2,51.2,0,0,1-25.843,22.953c-13.416,5.635,1.889,1.069,1.889,1.069l16.121,27.079S527.838,301.006,534.9,273.619Z" transform="translate(-476.951 -164.547)" fill="#ffb5ad"/>
              <path id="Path_66" data-name="Path 66" d="M526.72,205.729c-5.146,36.712-39.748,43.9-39.748,43.9l-4.12-8.7S500.285,240.574,526.72,205.729Z" transform="translate(-467.909 -101.44)" fill="#ff9385"/>
            </g>
            <path id="Path_67" data-name="Path 67" d="M472.039,253.387s22.774-.712,36.3-18.5S532.887,184,532.887,184l24.2,8.185s-3.2,102.123-75.437,100.345Z" transform="translate(-472.039 -134.737)" fill="#ff578c"/>
          </g>
        </g>
        <g id="Group_38" data-name="Group 38" transform="translate(347.436)">
          <path id="Path_68" data-name="Path 68" d="M512.226,145.64v14.946" transform="translate(-478.118 -145.64)" fill="none" stroke="#ff6b99" stroke-miterlimit="10" stroke-width="0.845"/>
          <path id="Path_69" data-name="Path 69" d="M530.921,151.241q-5.713,5.675-11.421,11.353" transform="translate(-466.971 -137.057)" fill="none" stroke="#ff6b99" stroke-miterlimit="10" stroke-width="0.845"/>
          <path id="Path_70" data-name="Path 70" d="M512.234,162.115l-13.477-11.441" transform="translate(-498.757 -137.926)" fill="none" stroke="#ff6b99" stroke-miterlimit="10" stroke-width="0.845"/>
        </g>
        <g id="Group_49" data-name="Group 49" transform="translate(530.181 70.514)">
          <g id="Group_48" data-name="Group 48">
            <g id="Group_40" data-name="Group 40" transform="translate(98.595)">
              <path id="Path_71" data-name="Path 71" d="M610.568,201.669c-.869-4.029,5.642-14.432,9.033-16.795,9.286-6.468,21.295-8.339,32.536-7.022,0,0,47.53,29.386-7.822,59.789h0" transform="translate(-608.884 -167.401)" fill="#00152b"/>
              <path id="Path_72" data-name="Path 72" d="M651.6,261.657s20.269-91.213-5.457-88.093-17.929,17.152-17.929,17.152l10.135,2.337,9.354,72.5Z" transform="translate(-583.426 -173.485)" fill="#00152b"/>
              <path id="Path_73" data-name="Path 73" d="M651.805,207.387a.961.961,0,0,0,1.046.9c2.266-.213,7.46-1.157,8.727,4.713,1.276,5.936-4.143,9.815-7.567,10.309-.988.142-3.262.547-3.872,1.337-1.869,2.434-2.406,7.438-3.457,13.71-2.322,13.852,8.861,19.1,8.861,19.1s-33.929,20.57-35.144,3.062c0,0-.035-32.407-.215-32.556-3.013-2.525-13.872-2.765-9.134-26.286,4.386-21.786,20.1-21.652,24.123-21.3C638.566,180.674,650.232,180.377,651.805,207.387Z" transform="translate(-609.834 -163.046)" fill="#f19d9b"/>
              <path id="Path_74" data-name="Path 74" d="M615.459,180.506s24.311,26.858,28.317,28.912C643.776,209.419,655.513,172.98,615.459,180.506Z" transform="translate(-601.268 -164.295)" fill="#00152b"/>
              <g id="Group_39" data-name="Group 39" transform="translate(0 30.697)">
                <path id="Path_75" data-name="Path 75" d="M634.089,195.444s-4.229-7.207-7.865,3.274" transform="translate(-584.773 -174.235)" fill="#ec5f5c"/>
                <path id="Path_76" data-name="Path 76" d="M621.67,191.7a5.35,5.35,0,1,0,5.69,4.986A5.351,5.351,0,0,0,621.67,191.7Z" transform="translate(-599.413 -176.288)" fill="#f7827e"/>
                <path id="Path_77" data-name="Path 77" d="M610.083,199.288a5.352,5.352,0,0,0,.917-9.975S609.242,195.411,610.083,199.288Z" transform="translate(-609.855 -179.928)" fill="#f7827e"/>
                <path id="Path_78" data-name="Path 78" d="M611.62,192.012l8.481,3.328s-3.718,3.244-6,1.851S611.62,192.012,611.62,192.012Z" transform="translate(-607.151 -175.792)" fill="#fff"/>
                <path id="Path_79" data-name="Path 79" d="M616.423,189.465l-.772,5.913-2.935-1a.753.753,0,0,1-.266-1.266Z" transform="translate(-606.253 -179.695)" fill="#ec5f5c"/>
                <path id="Path_80" data-name="Path 80" d="M620.6,190.382c.793.922.081-2.479-1.147-3.165a2.393,2.393,0,0,0-3.3.674A7.48,7.48,0,0,1,620.6,190.382Z" transform="translate(-600.201 -183.707)"/>
                <path id="Path_81" data-name="Path 81" d="M611.846,187.838c-1.137.428,1.117-2.216,2.525-2.231a2.4,2.4,0,0,1,2.573,2.175A7.472,7.472,0,0,0,611.846,187.838Z" transform="translate(-607.278 -185.607)"/>
                <path id="Path_82" data-name="Path 82" d="M617.375,191.367c-.306,1.005-.95,1.7-1.438,1.552s-.633-1.086-.327-2.092.95-1.7,1.436-1.55S617.681,190.362,617.375,191.367Z" transform="translate(-601.282 -180.012)"/>
                <path id="Path_83" data-name="Path 83" d="M614.225,190.157c-.291.962-.906,1.626-1.373,1.484s-.605-1.036-.314-2,.909-1.623,1.375-1.481S614.519,189.2,614.225,190.157Z" transform="translate(-605.975 -181.722)"/>
                <path id="Path_84" data-name="Path 84" d="M614.061,199.12s10.3,1.038,15.379.258S611.526,230.248,614.061,199.12Z" transform="translate(-603.711 -164.9)"/>
              </g>
            </g>
            <ellipse id="Ellipse_4" data-name="Ellipse 4" cx="106.141" cy="6.107" rx="106.141" ry="6.107" transform="translate(76.479 573.338)" fill="#7ba5c9"/>
            <g id="Group_41" data-name="Group 41" transform="translate(66.052 525.245)">
              <path id="Path_85" data-name="Path 85" d="M633.8,384.865l-3.7,26.258s-5.931,17.415-11.436,10.674a54.29,54.29,0,0,0-10.96-10.3l-1.806-27.3Z" transform="translate(-583.374 -375.847)" fill="#f19b9b"/>
              <path id="Path_86" data-name="Path 86" d="M611.8,384.847l-.952,35.716s17.428,2.616,10.953-9.048l3.809-24.764Z" transform="translate(-575.789 -374.847)" fill="#f7827e"/>
              <path id="Path_87" data-name="Path 87" d="M651.574,383.663l8.169,26.192s6.219,5.455,8.463,5.313c4.085-.256,6.224-7.3,6.224-7.3l.674-24.2Z" transform="translate(-513.384 -376.661)" fill="#f19b9b"/>
              <path id="Path_88" data-name="Path 88" d="M656.222,380.9l5.716,43.334s11.712,3.095,5.237-8.57l1.428-33.336Z" transform="translate(-506.261 -380.898)" fill="#f7827e"/>
              <path id="Path_89" data-name="Path 89" d="M619.521,397.558,597.53,415.383c-1.127.836-.324,2.244,1.286,2.256l32.462.263a1.893,1.893,0,0,0,1.742-.884L635.47,412c.707-1.451,2.117-1.568,1.985-.033l1.2,4.847c-.063.762,7.7.555,7.764-.139.428-4.31-.471-18.4-1.243-22.325a1.619,1.619,0,0,0-1.456-1.124h0a2.206,2.206,0,0,0-1.816.5c-2.19,2.12-9.2,8.5-12.93,7.207a27.309,27.309,0,0,1-6.756-3.307A2.3,2.3,0,0,0,619.521,397.558Z" transform="translate(-597.004 -362.049)" fill="#ff64a5"/>
              <path id="Path_90" data-name="Path 90" d="M672.071,392.963l12.487,20.917c1.335,2.033.59,4.462-1.818,5.9-3.9,2.325-7.1,6.961-9.552,7.027-4.439.124-11.34-4.551-15.362-6.306-2.7-1.175-4.814-2.9-4.48-5.156l3.1-20.981c.038-.261.494-.357.722-.152l4.781,4.335c1.565,1.421,5.817,1.228,6.873-.471.752-1.213,2.522-5.126,2.522-5.126A.488.488,0,0,1,672.071,392.963Z" transform="translate(-510.72 -362.666)" fill="#ff64a5"/>
            </g>
            <g id="Group_42" data-name="Group 42" transform="translate(72.784 184.723)">
              <path id="Path_91" data-name="Path 91" d="M688.048,248.907c10.081,17.823,15.412,30.877,21.2,53.539,6.719,26.278,79.433,248.572,82.6,296.373-8.281,2-63.276,1.7-68.511,1.416-16.648-47.707-58.764-202.647-65.9-232.7-1.1-4.619-8.235-3.606-7.681,1.109,4.054,34.321,25.881,178.881,36.762,231.676-4.343,2.211-67.4,1.72-72.413,1.091-5.455-58.867-34.4-281.718,9.3-353.954C643.395,244.7,667.784,248.3,688.048,248.907Z" transform="translate(-599.663 -246.43)" fill="#285073"/>
              <path id="Path_92" data-name="Path 92" d="M620.843,249.926s-17.8,44.053-17.8,106.228,20.38,219.69,20.38,219.69" transform="translate(-594.487 -241.073)" fill="none" stroke="#fff" stroke-miterlimit="10" stroke-width="0.308"/>
              <line id="Line_14" data-name="Line 14" x1="71.096" y1="327.948" transform="translate(78.53 6.823)" fill="none" stroke="#fff" stroke-miterlimit="10" stroke-width="0.308"/>
              <path id="Path_93" data-name="Path 93" d="M625.751,249.811s.605,56.953,26.167,52.46" transform="translate(-559.686 -241.249)" fill="none" stroke="#fff" stroke-miterlimit="10" stroke-width="0.308"/>
              <path id="Path_94" data-name="Path 94" d="M609.154,250.383l82.284,61.962s3.437-33.437-11.183-60.881Z" transform="translate(-585.118 -240.373)" opacity="0.21" style="mix-blend-mode: multiply;isolation: isolate"/>
              <path id="Path_95" data-name="Path 95" d="M604.8,303.13c25.562,4.49,21.449-52.174,21.449-52.174" transform="translate(-591.783 -239.494)" fill="none" stroke="#fff" stroke-miterlimit="10" stroke-width="0.308"/>
            </g>
            <line id="Line_15" data-name="Line 15" x1="71.035" y2="0.011" transform="translate(84.792 519.829)" fill="none" stroke="#fff" stroke-miterlimit="10" stroke-width="0.308"/>
            <line id="Line_16" data-name="Line 16" x1="73.393" y2="0.625" transform="translate(189.292 519.215)" fill="none" stroke="#fff" stroke-miterlimit="10" stroke-width="0.308"/>
            <path id="Path_96" data-name="Path 96" d="M645.236,292.674c0-.438.436-5.088.436-5.088l-2.107,6.685Z" transform="translate(-459.604 1.359)" fill="#d14341"/>
            <path id="Path_97" data-name="Path 97" d="M639.906,292.206l-1.471,1.145s1.527,2.781,2.18,2.563A4.81,4.81,0,0,1,639.906,292.206Z" transform="translate(-467.465 8.438)" fill="#d14341"/>
            <g id="Group_43" data-name="Group 43" transform="translate(0 104.394)">
              <path id="Path_98" data-name="Path 98" d="M685.741,269.266c1.955-3.963,4.019-8.319,6.2-13.118L672.4,239.974c.354-4.923.557-9.213.451-11.841-.066-1.669-1.137-3.315-1.378-3.186-4.432,2.36-18.663,46.016-21.472,52.377-.876,1.983-3.755,1.719-5.363.38l-47.7-41.789c-1.223-1.254-12.844-7.05-24.929-21.206-3.794,6.746,3.325,19.932,7.032,25.481,0,0,50.234,69.984,73.806,73.137,0,0,26.321-7.43,31.2-40.655,2.051.572,3.424.942,3.424.942C691.158,269.107,689.372,268.466,685.741,269.266Z" transform="translate(-570.921 -214.709)" fill="#f19d9b"/>
              <path id="Path_99" data-name="Path 99" d="M589.942,234.155s-12.115-17.615-14.209-18.243,4.546,11.71,2.624,11.834C578.356,227.746,587.559,233.674,589.942,234.155Z" transform="translate(-564.18 -212.901)" fill="#f19d9b"/>
            </g>
            <path id="Path_100" data-name="Path 100" d="M666.1,210.135s-18.172-2.421-23.508,8.478-17.162,59.607-17.162,59.607l-32.933-31.543-12.755,23.194s46.849,59.141,60.3,54.965S666.255,224.995,666.1,210.135Z" transform="translate(-557.409 -117.676)" fill="#ff6192"/>
            <g id="Group_44" data-name="Group 44" transform="translate(85.839 94.209)">
              <path id="Path_101" data-name="Path 101" d="M620.721,210.687c.582,1.411-16.574,42.3-15.883,56.14.7,13.943,10.221,37.4,9.479,39.495,0,0,10.818,8.534,70.491-.864,18.344-16.048,2.226-70.6-3.935-87.87,0,0-11.743-5.878-16.8-6.25A80.427,80.427,0,0,1,620.721,210.687Z" transform="translate(-604.818 -210.687)" fill="#ff6192"/>
            </g>
            <g id="Group_47" data-name="Group 47" transform="translate(92.385 98.879)">
              <g id="Group_46" data-name="Group 46" transform="translate(0 72.951)">
                <path id="Path_102" data-name="Path 102" d="M761.718,352.28,614.7,355.114a5.8,5.8,0,0,1-5.667-5.923L607.4,250.312a5.838,5.838,0,0,1,5.47-6.138l147.022-2.834a5.8,5.8,0,0,1,5.667,5.926l1.626,98.876A5.837,5.837,0,0,1,761.718,352.28Z" transform="translate(-607.403 -241.339)" fill="#fff"/>
                <g id="Group_45" data-name="Group 45" transform="translate(34.409 7.358)">
                  <path id="Path_103" data-name="Path 103" d="M671.891,286.719l-27.674,28.6a42.2,42.2,0,0,1,.426-57.647,37.553,37.553,0,0,1,54.922.448,42.207,42.207,0,0,1-.425,57.647Z" transform="translate(-602.506 -241.62)" fill="#b6cceb"/>
                  <path id="Path_104" data-name="Path 104" d="M692.63,294.441a37.556,37.556,0,0,1-54.925-.448l27.676-28.6Z" transform="translate(-595.376 -211.833)" fill="#285073"/>
                  <path id="Rectangle_21" data-name="Rectangle 21" d="M1.087,0H44.578a1.087,1.087,0,0,1,1.087,1.087V4.552a1.087,1.087,0,0,1-1.087,1.087H1.086A1.086,1.086,0,0,1,0,4.552V1.087A1.087,1.087,0,0,1,1.087,0Z" transform="translate(45.664 5.639) rotate(-180)" fill="#ff6192"/>
                  <rect id="Rectangle_22" data-name="Rectangle 22" width="33.577" height="4.511" rx="0.869" transform="translate(2.742 94.867)" fill="#ff6192"/>
                </g>
              </g>
              <path id="Path_105" data-name="Path 105" d="M650.093,262.043s12.429,5.771,2.824,41.009a13.324,13.324,0,0,0-.57,5.885l2.158,15.144c.322,1.621.544,3.8-.833,4.715-1.722,1.145-11.535,10.162-12.727,10.56-2.426.808.22-11.163-.177-17.468-.068-1.124-.337,3.994-.486,6.23l-.3,4.923c-2.935-1.342-2.874-6.994-3.333-8.9a7.385,7.385,0,0,1,.182-4.806c1.34-2.791,3.892-8.337,4.29-13.315.236-2.93-1.816-13.809-3.515-34.073Z" transform="translate(-563.034 -136.661)" fill="#48838f" opacity="0.6"/>
              <path id="Path_106" data-name="Path 106" d="M663.274,252.135c23.044,128.7,8.076,153.14,6.567,154.142-1.887,1.256-12.644,11.14-13.951,11.578-2.656.884.241-12.236-.192-19.147-.078-1.231-.372,4.376-.534,6.827l-.327,5.4c-3.216-1.471-3.15-7.668-3.654-9.757a8.1,8.1,0,0,1,.2-5.267c1.469-3.059,4.267-9.139,4.7-14.594.256-3.214-21.581-107.734-25.42-123.093-5.219-20.869,1.347-44.841,8.7-45.651C648.477,211.561,661.364,241.473,663.274,252.135Z" transform="translate(-574.633 -212.511)" fill="#f19d9b"/>
              <path id="Path_107" data-name="Path 107" d="M679.451,373.926c-.927-3.943,4.032-79.025-12.712-128.143-7.486-21.956-18.261-34.2-27.377-33.194-7.349.81-13.915,24.782-8.7,45.651,3.839,15.359,11.91,83.91,18.636,118.932Z" transform="translate(-574.633 -212.531)" fill="#ff6192"/>
            </g>
          </g>
        </g>
        <g id="Group_50" data-name="Group 50" transform="translate(625.737 97.844)">
          <path id="Path_108" data-name="Path 108" d="M614.264,194.762c-1.053,5.736,1.15,10.95,4.925,11.646s7.693-3.393,8.749-9.129-1.15-10.95-4.925-11.646S615.32,189.026,614.264,194.762Z" transform="translate(-600.463 -182.319)" fill="none" stroke="#1e424d" stroke-miterlimit="10" stroke-width="0.432"/>
          <path id="Path_109" data-name="Path 109" d="M608.893,192.623c-.955,5.2,1.043,9.924,4.465,10.552s6.974-3.074,7.931-8.273-1.043-9.924-4.465-10.555S609.851,187.422,608.893,192.623Z" transform="translate(-608.655 -184.277)" fill="none" stroke="#1e424d" stroke-miterlimit="10" stroke-width="0.432"/>
          <line id="Line_17" data-name="Line 17" x1="1.36" y1="0.322" transform="translate(11.702 14.165)" fill="none" stroke="#1e424d" stroke-miterlimit="10" stroke-width="0.432"/>
          <line id="Line_18" data-name="Line 18" y1="0.591" x2="22.901" transform="translate(26.864 17.31)" fill="none" stroke="#1e424d" stroke-miterlimit="10" stroke-width="0.432"/>
        </g>
      </g>
    </g>
    <g id="Group_53" data-name="Group 53" transform="translate(0 166)" opacity="0.14">
      <path id="Path_110" data-name="Path 110" d="M43.95,304.778C175.719,304.778,292.8,181.617,292.8,29.69H46.516Z" transform="translate(-43.95 -29.69)" fill="#d6e1ff" stroke="#d6e1ff" stroke-miterlimit="10" stroke-width="2.449"/>
      <path id="Path_111" data-name="Path 111" d="M122.114,544.869a143.36,143.36,0,0,1,286.72,0" transform="translate(39.89 369.131)" fill="#d6e1ff" stroke="#d6e1ff" stroke-miterlimit="10" stroke-width="2.449"/>
      <circle id="Ellipse_5" data-name="Ellipse 5" cx="35.592" cy="35.592" r="35.592" transform="translate(725 177.466) rotate(-22.254)" fill="#d6e1ff" stroke="#d6e1ff" stroke-miterlimit="10" stroke-width="2.449"/>
      <circle id="Ellipse_6" data-name="Ellipse 6" cx="10.338" cy="10.338" r="10.338" transform="translate(555.556 670.707)" fill="#d6e1ff" stroke="#d6e1ff" stroke-miterlimit="10" stroke-width="2.449"/>
      <circle id="Ellipse_7" data-name="Ellipse 7" cx="11.477" cy="11.477" r="11.477" transform="translate(572.337 233.974)" fill="#d6e1ff" stroke="#d6e1ff" stroke-miterlimit="10" stroke-width="2.449"/>
    </g>
  </g>
</svg>
