<svg xmlns="http://www.w3.org/2000/svg" width="146" height="146" viewBox="0 0 146 146">
  <g id="choose_icon" transform="translate(-887 -3827)">
    <g id="Group_147" data-name="Group 147" transform="translate(-8.15 -8.15)">
      <circle id="Ellipse_10" data-name="Ellipse 10" cx="73" cy="73" r="73" transform="translate(895.15 3835.15)" fill="#fff"/>
      <g id="Group_108" data-name="Group 108" transform="translate(916.382 3858.037)">
        <path id="Path_126" data-name="Path 126" d="M-121.224,4395.612l-7.154,7.336a43.612,43.612,0,0,0-18.468-8.279c-21.269-3.889-42.647,10.814-46.38,32.058a40.29,40.29,0,0,0,43.872,47.516c24.034-2.267,40.8-26.643,34.389-50.229-.717-2.638-.3-4.232,1.651-5.959a64.662,64.662,0,0,0,4.976-5.487c9.567,17.474,6.852,46.14-15.361,62.49a50.672,50.672,0,0,1-69.05-8.475,50.54,50.54,0,0,1,4.771-69.638C-168.423,4378.844-139.026,4379.783-121.224,4395.612Z" transform="translate(204.438 -4383.554)" fill="#41436a"/>
        <path id="Path_127" data-name="Path 127" d="M-154.316,4452.017c17.273-17.288,34.108-34.138,50.943-50.987,1.247-1.248,2.424-2.585,3.782-3.7a4.935,4.935,0,0,1,6.915.068c2.2,1.941,2.314,4.4.758,6.864a12.061,12.061,0,0,1-1.761,1.961q-27.6,27.612-55.212,55.214c-4.31,4.308-6.347,4.284-10.734-.1-3.276-3.276-6.583-6.52-9.81-9.842-2.691-2.77-2.859-5.525-.622-7.862,2.221-2.32,5.348-2.129,8.149.534,1.278,1.215,2.522,2.469,3.748,3.738S-155.766,4450.461-154.316,4452.017Z" transform="translate(193.353 -4387.739)" fill="#41436a"/>
      </g>
    </g>
  </g>
</svg>
