<svg xmlns="http://www.w3.org/2000/svg" width="146" height="86.056" viewBox="0 0 146 86.056">
  <g id="IT_wrk_icon" transform="translate(428.767 -4665.348)">
    <path id="Path_131" data-name="Path 131" d="M-357.576,4751.391c-9.149,0-18.3.021-27.447-.007-6.566-.02-7.629-1.056-7.668-7.435-.035-5.656.2-11.322-.075-16.965a9.36,9.36,0,0,1,4.91-9.119c8.368-4.965,17.149-8.346,27.168-8.727a59.607,59.607,0,0,1,30.767,6.61c5.435,2.855,8.887,6.546,8.183,13.351-.527,5.1-.055,10.3-.12,15.459-.07,5.5-1.328,6.787-6.773,6.817C-338.279,4751.429-347.927,4751.39-357.576,4751.391Z" transform="translate(0.886)" fill="#41436a"/>
    <path id="Path_132" data-name="Path 132" d="M-338.377,4684.361a18.836,18.836,0,0,1-19.1,18.925,19.013,19.013,0,0,1-18.766-18.817,18.876,18.876,0,0,1,18.908-19.121A18.761,18.761,0,0,1-338.377,4684.361Z" transform="translate(0.889)" fill="#41436a"/>
    <path id="Path_133" data-name="Path 133" d="M-318.029,4740.271c-1.454-9.979,3.622-21.984-10.61-27.5,9.206-4.685,17.813-4,26.473-2.818a6.661,6.661,0,0,1,.952.3c15.224,4.555,19.266,11.581,15.116,26.852a5.2,5.2,0,0,1-3.784,3.03C-299.16,4740.4-308.449,4740.271-318.029,4740.271Z" transform="translate(1.799)" fill="#41436a"/>
    <path id="Path_134" data-name="Path 134" d="M-396.527,4740.289c-9.641,0-18.61-.017-27.579.009-3.129.009-4.571-1.541-4.563-4.6.012-4.827-.32-9.689.172-14.466a8.592,8.592,0,0,1,3.373-5.6c11.978-7.853,24.774-8.22,38.859-3.237C-399.942,4718.038-395.362,4729.927-396.527,4740.289Z" fill="#41436a"/>
    <path id="Path_135" data-name="Path 135" d="M-388.613,4690.677a13.686,13.686,0,0,1-13.881,13.965,13.937,13.937,0,0,1-14.05-13.9,14.164,14.164,0,0,1,13.982-14.075A13.966,13.966,0,0,1-388.613,4690.677Z" fill="#41436a"/>
    <path id="Path_136" data-name="Path 136" d="M-325.9,4690.083a13.882,13.882,0,0,1,14.524-13.394,14.264,14.264,0,0,1,13.4,14.657,13.987,13.987,0,0,1-14.665,13.272A13.648,13.648,0,0,1-325.9,4690.083Z" transform="translate(1.799)" fill="#41436a"/>
  </g>
</svg>
