<svg xmlns="http://www.w3.org/2000/svg" width="36" height="36" viewBox="0 0 36 36">
  <g id="social_icon_4" transform="translate(-809.925 -370.283)">
    <rect id="Rectangle_54" data-name="Rectangle 54" width="36" height="36" rx="9.128" transform="translate(809.925 370.283)" fill="#41436a"/>
    <g id="Group_102" data-name="Group 102" transform="translate(818.297 377.955)">
      <path id="Path_124" data-name="Path 124" d="M818.333,398.7l1.486-5.541a10.255,10.255,0,1,1,4.084,4.049Zm5.847-3.568.351.209a8.326,8.326,0,1,0-2.848-2.822l.215.353-.829,3.094Z" transform="translate(-818.333 -377.988)" fill="#fff"/>
      <path id="Path_125" data-name="Path 125" d="M832.573,389.642a1.719,1.719,0,0,0-1.465-.33c-.381.156-.624.752-.87,1.056a.365.365,0,0,1-.472.1,6.635,6.635,0,0,1-3.312-2.837.406.406,0,0,1,.051-.555,2.249,2.249,0,0,0,.6-.976,2.145,2.145,0,0,0-.269-1.157,2.74,2.74,0,0,0-.854-1.286,1.167,1.167,0,0,0-1.27.189,2.579,2.579,0,0,0-.894,2.043,2.88,2.88,0,0,0,.08.648,5.379,5.379,0,0,0,.622,1.433,11.34,11.34,0,0,0,.649.987,10.044,10.044,0,0,0,2.816,2.615,8.539,8.539,0,0,0,1.756.835,3.906,3.906,0,0,0,2.044.323,2.476,2.476,0,0,0,1.854-1.379,1.2,1.2,0,0,0,.086-.7C833.621,390.165,832.965,389.877,832.573,389.642Z" transform="translate(-818.333 -377.988)" fill="#fff" fill-rule="evenodd"/>
    </g>
  </g>
</svg>
