<svg xmlns="http://www.w3.org/2000/svg" width="36" height="36" viewBox="0 0 36 36">
  <g id="social_icon_2" transform="translate(-809.925 -95.795)">
    <path id="Path_122" data-name="Path 122" d="M836.813,131.795h-6.1l-2.784-.919-2.762.919h-6.127a9.112,9.112,0,0,1-9.112-9.112V104.908a9.112,9.112,0,0,1,9.112-9.113h17.777a9.112,9.112,0,0,1,9.112,9.113v17.776A9.112,9.112,0,0,1,836.813,131.795Z" fill="#41436a"/>
    <path id="Path_123" data-name="Path 123" d="M825.174,109.9v3.925h-4.523v5.149h4.523V131.86h5.567V118.977h4.15l.79-5.149h-4.94v-3.342a2.575,2.575,0,0,1,2.9-2.782h2.246v-4.383a27.4,27.4,0,0,0-3.988-.348C827.834,102.973,825.174,105.439,825.174,109.9Z" transform="translate(-0.033 -0.065)" fill="#fff"/>
  </g>
</svg>
