<svg xmlns="http://www.w3.org/2000/svg" width="36" height="36" viewBox="0 0 36 36">
  <g id="social_icon_3" transform="translate(-809.925 -205.59)">
    <rect id="Rectangle_53" data-name="Rectangle 53" width="36" height="36" rx="9.128" transform="translate(809.925 205.59)" fill="#41436a"/>
    <g id="Group_99" data-name="Group 99" transform="translate(818.418 215.693)">
      <path id="Path_121" data-name="Path 121" d="M837.8,217.642a8.024,8.024,0,0,1-1.964.561c.316-.053.78-.625.966-.857a3.609,3.609,0,0,0,.652-1.189c.017-.034.03-.076,0-.1a.113.113,0,0,0-.1.009,10,10,0,0,1-2.329.891.156.156,0,0,1-.161-.043,1.911,1.911,0,0,0-.2-.208,4.126,4.126,0,0,0-1.129-.691,3.921,3.921,0,0,0-1.73-.279,4.122,4.122,0,0,0-1.642.464,4.241,4.241,0,0,0-1.325,1.082,4.056,4.056,0,0,0-.791,1.584,4.3,4.3,0,0,0-.042,1.673c.013.093,0,.106-.08.093a12.442,12.442,0,0,1-8.005-4.074c-.093-.107-.144-.107-.22.008a4.059,4.059,0,0,0,.692,4.8c.156.148.318.3.491.433a4.084,4.084,0,0,1-1.544-.433c-.094-.059-.141-.025-.149.081a2.491,2.491,0,0,0,.026.458,4.1,4.1,0,0,0,2.529,3.272,2.36,2.36,0,0,0,.513.157,4.579,4.579,0,0,1-1.515.047c-.11-.021-.152.034-.11.14a4.262,4.262,0,0,0,3.183,2.665c.144.026.289.026.433.059-.008.013-.017.013-.025.026a5.039,5.039,0,0,1-2.174,1.152,7.785,7.785,0,0,1-3.3.423c-.178-.026-.215-.024-.263,0s-.006.072.051.118c.225.149.454.281.687.408a10.927,10.927,0,0,0,2.207.883,11.756,11.756,0,0,0,11.411-2.668,11.977,11.977,0,0,0,3.158-8.736c0-.126.148-.2.236-.261a7.7,7.7,0,0,0,1.553-1.615.492.492,0,0,0,.1-.31v-.017C837.879,217.591,837.878,217.606,837.8,217.642Z" transform="translate(-818.452 -215.726)" fill="#fff"/>
    </g>
  </g>
</svg>
