<svg xmlns="http://www.w3.org/2000/svg" width="146.823" height="144.214" viewBox="0 0 146.823 144.214">
  <g id="stratrgic_icon" transform="translate(476.379 -4108.596)">
    <path id="Path_128" data-name="Path 128" d="M-347.894,4124.227h18.338c-7.658,5.246-10.437,14.817-21.321,13.895-6.548-.554-6.6.015-12.454,6.709,14.36,17.535,19.878,37.476,14.1,59.82a62.341,62.341,0,0,1-26.9,37.406c-27.546,18.177-63.613,12.852-85.226-12.5-20.638-24.209-19.9-60.683,1.522-84.689,21.163-23.71,60.864-30.852,91.4-5.232,5.111-3.445,8.207-7.847,8.562-14.374.144-2.637,2.15-5.432,3.928-7.662a42.624,42.624,0,0,1,10.033-9C-346.552,4113.66-347.2,4118.723-347.894,4124.227Zm-27.334,23.265c-15.94-16.4-50.687-22.337-74.992,1.258a54.993,54.993,0,0,0-.13,78.594,55.114,55.114,0,0,0,78.611-1.385c22.734-24.082,17.112-58.308,1.4-73.482l-11.429,10.948c14.654,19.591,8.971,42.433-5.045,54.189a38.7,38.7,0,0,1-50.98-1.049,38.649,38.649,0,0,1-5.216-51.069,37.589,37.589,0,0,1,22.492-14.979c12.363-2.869,23.533.2,33.633,7.8.9-.817,1.6-1.435,2.279-2.07Q-379.908,4151.87-375.229,4147.492Zm-14.364,22.656c-2.59,2.795-5.049,5.7-7.783,8.317-2.079,1.991-3.152,3.653-2.211,6.9a11.971,11.971,0,0,1-6.475,13.946,12.383,12.383,0,0,1-14.83-2.64,12.72,12.72,0,0,1-1.875-14.6,12.776,12.776,0,0,1,13.751-6.244c1.539.286,3.717.71,4.673-.068,3.764-3.064,7.157-6.582,10.756-10-12.677-10.091-30.138-8.282-40.133,3.455a28.974,28.974,0,0,0,2.5,40.342,28.969,28.969,0,0,0,40.064-1C-380.729,4198.066-379.79,4180.584-389.593,4170.148Z" transform="translate(0)" fill="#41436a"/>
    <path id="Path_129" data-name="Path 129" d="M-374.752,4148.711q-4.679,4.372-9.376,8.758c-.681.635-1.378,1.253-2.279,2.07-10.1-7.6-21.27-10.671-33.633-7.8a37.589,37.589,0,0,0-22.492,14.979,38.649,38.649,0,0,0,5.216,51.069,38.7,38.7,0,0,0,50.98,1.049c14.016-11.757,19.7-34.6,5.045-54.189l11.429-10.948c15.709,15.175,21.331,49.4-1.4,73.482a55.114,55.114,0,0,1-78.611,1.385,54.993,54.993,0,0,1,.13-78.594C-425.439,4126.374-390.692,4132.315-374.752,4148.711Z" transform="translate(-0.477 -1.219)" fill="#fff"/>
    <path id="Path_130" data-name="Path 130" d="M-387.817,4172.668c9.8,10.436,8.864,27.918-1.564,38.418a28.969,28.969,0,0,1-40.064,1,28.974,28.974,0,0,1-2.5-40.342c10-11.737,27.456-13.546,40.133-3.455-3.6,3.414-6.993,6.932-10.756,10-.956.778-3.134.354-4.673.068a12.776,12.776,0,0,0-13.751,6.244,12.72,12.72,0,0,0,1.875,14.6,12.383,12.383,0,0,0,14.83,2.64,11.971,11.971,0,0,0,6.475-13.946c-.941-3.25.131-4.912,2.211-6.9C-392.866,4178.367-390.407,4175.463-387.817,4172.668Z" transform="translate(-1.776 -2.52)" fill="#fff"/>
  </g>
</svg>
